<?xml version="1.0" standalone="no"?>
<!DOCTYPE svg PUBLIC "-//W3C//DTD SVG 20010904//EN"
 "http://www.w3.org/TR/2001/REC-SVG-20010904/DTD/svg10.dtd">
<svg version="1.0" xmlns="http://www.w3.org/2000/svg"
 width="300.000000pt" height="306.000000pt" viewBox="0 0 300.000000 306.000000"
 preserveAspectRatio="xMidYMid meet">

<g transform="translate(0.000000,306.000000) scale(0.100000,-0.100000)"
fill="#000000" stroke="none">
<path d="M1370 2764 c-226 -44 -406 -138 -546 -286 -151 -161 -238 -354 -259
-579 l-6 -67 -57 -26 -57 -26 140 0 141 0 120 303 119 302 68 3 c37 2 67 0 67
-4 0 -3 -54 -142 -119 -308 -65 -165 -130 -329 -142 -363 l-24 -63 -119 0
c-104 0 -117 -2 -112 -16 3 -9 6 -22 6 -30 0 -12 21 -14 126 -12 l126 3 115
290 c63 160 133 337 156 395 l42 105 68 3 c37 2 67 0 67 -5 0 -4 -82 -213
-182 -465 l-181 -458 -144 0 c-78 0 -143 -2 -143 -5 0 -2 5 -16 12 -30 l11
-25 147 0 147 0 83 213 c46 116 125 316 175 442 51 127 100 254 110 283 l19
52 69 0 c61 0 69 -2 64 -17 -4 -17 -332 -849 -400 -1018 l-32 -80 -150 -5
-150 -5 80 -84 c113 -118 236 -197 378 -245 359 -119 747 -21 998 252 150 163
249 394 249 578 l0 55 63 29 62 30 -141 0 -141 0 -97 -247 c-54 -137 -104
-261 -111 -278 -7 -16 -17 -42 -23 -57 -11 -27 -15 -28 -77 -28 -39 0 -65 4
-65 11 0 5 19 58 43 117 24 59 88 221 142 359 l100 253 116 0 116 0 -5 30 -4
31 -126 -3 -125 -3 -63 -155 c-34 -85 -105 -263 -157 -395 l-95 -240 -67 -3
c-61 -3 -67 -1 -62 15 8 28 104 276 236 608 l119 300 146 3 146 3 -15 30 -16
30 -146 -3 -146 -3 -24 -65 c-13 -36 -99 -256 -192 -490 l-169 -425 -66 -3
c-41 -2 -66 1 -66 8 0 5 47 128 104 272 57 145 155 392 217 551 l114 287 142
0 c92 0 143 4 143 10 0 24 -180 187 -256 232 -162 95 -277 128 -469 133 -77 2
-151 1 -165 -1z m237 -529 c30 -77 71 -180 90 -229 l34 -90 -32 -83 c-18 -46
-35 -80 -39 -76 -11 12 -180 448 -180 463 0 24 55 160 64 157 4 -2 33 -66 63
-142z m-72 -297 c112 -283 106 -250 70 -340 -16 -43 -33 -78 -36 -78 -4 0 -48
104 -99 230 l-92 230 32 80 c18 44 35 80 39 80 3 0 42 -91 86 -202z m-84 -268
c49 -124 89 -230 89 -236 0 -19 -56 -148 -66 -151 -5 -1 -41 79 -81 180 -119
303 -110 267 -79 345 14 37 26 73 26 81 0 42 32 -20 111 -219z"/>
<path d="M2361 2388 c-26 -70 -27 -68 27 -68 45 0 51 3 60 28 5 15 13 35 17
45 6 15 1 17 -44 17 -44 0 -53 -3 -60 -22z"/>
<path d="M2590 2351 c0 -5 -3 -16 -6 -25 -9 -24 43 -21 56 3 15 28 13 31 -20
31 -16 0 -30 -4 -30 -9z"/>
<path d="M2461 2199 c-6 -18 -11 -34 -11 -36 0 -2 16 -3 36 -1 30 2 38 9 49
36 l14 32 -39 0 c-34 0 -39 -4 -49 -31z"/>
<path d="M2611 2169 c-6 -18 -11 -34 -11 -35 0 -2 15 -4 33 -4 26 0 36 6 45
25 18 39 15 45 -22 45 -29 0 -36 -4 -45 -31z"/>
<path d="M2543 1985 l-21 -55 58 0 58 0 17 43 c9 23 19 48 22 55 4 9 -11 12
-53 12 l-59 0 -22 -55z"/>
<path d="M366 1697 c-33 -80 -34 -77 31 -77 l59 0 17 48 c9 26 17 50 17 55 0
4 -25 7 -55 7 -53 0 -55 -1 -69 -33z"/>
<path d="M333 1490 c-11 -30 -11 -30 26 -30 32 0 38 4 48 30 11 30 11 30 -26
30 -32 0 -38 -4 -48 -30z"/>
<path d="M487 1468 c-13 -32 -13 -33 11 -36 35 -5 48 3 60 37 11 31 11 31 -23
31 -30 0 -37 -5 -48 -32z"/>
<path d="M380 1331 c-16 -30 -12 -41 13 -41 20 0 47 32 47 55 0 15 -51 2 -60
-14z"/>
<path d="M570 1315 c-6 -14 -14 -36 -20 -50 -9 -25 -9 -25 41 -25 50 0 50 0
69 46 11 25 20 48 20 50 0 2 -23 4 -50 4 -45 0 -52 -3 -60 -25z"/>
<path d="M460 445 l0 -145 50 0 49 0 -6 64 c-8 88 9 90 38 6 l24 -70 67 0 68
0 0 145 0 145 -45 0 -45 0 0 -70 c0 -73 -10 -89 -28 -42 -5 15 -17 45 -25 67
l-15 40 -66 3 -66 3 0 -146z"/>
<path d="M1673 560 c-68 -28 -51 -129 24 -145 16 -4 39 -11 52 -16 19 -8 21
-12 11 -25 -11 -13 -15 -13 -30 1 -10 9 -35 15 -62 15 -41 0 -46 -2 -41 -20 3
-11 17 -29 31 -40 47 -37 178 -20 196 25 21 56 -14 108 -82 120 -26 4 -42 12
-42 21 0 16 36 19 45 4 3 -5 22 -10 41 -10 29 0 34 3 34 24 0 44 -111 73 -177
46z"/>
<path d="M2100 558 c-34 -18 -70 -75 -70 -111 0 -44 36 -112 66 -125 14 -7 48
-12 75 -12 42 0 55 5 80 29 16 16 29 39 29 50 0 18 -6 21 -45 21 -31 0 -47 -5
-51 -15 -4 -8 -15 -15 -25 -15 -16 0 -19 8 -19 55 0 42 4 57 16 62 10 4 22 -1
29 -10 8 -11 27 -17 54 -17 34 0 41 3 41 19 0 11 -10 32 -23 47 -19 22 -34 28
-78 31 -32 2 -64 -1 -79 -9z"/>
<path d="M2385 562 c-51 -17 -85 -66 -85 -122 0 -83 51 -130 139 -130 41 0 56
5 82 28 27 24 33 37 37 85 4 46 0 62 -18 92 -31 50 -90 68 -155 47z m77 -93
c10 -49 -3 -93 -29 -97 -22 -3 -33 20 -33 71 0 70 48 90 62 26z"/>
<path d="M777 543 c3 -10 14 -29 22 -43 33 -50 51 -102 51 -145 l0 -45 55 0
56 0 -2 48 c-1 38 6 61 41 125 l42 77 -50 0 c-48 0 -49 -1 -62 -40 -7 -22 -17
-40 -21 -40 -5 0 -13 18 -19 40 l-11 40 -54 0 c-48 0 -54 -2 -48 -17z"/>
<path d="M1070 435 l0 -125 71 0 c115 0 169 41 169 128 0 95 -36 122 -160 122
l-80 0 0 -125z m142 40 c16 -60 -18 -131 -52 -110 -11 7 -14 128 -3 139 16 16
47 0 55 -29z"/>
<path d="M1395 548 c-2 -7 -18 -58 -35 -113 -17 -55 -33 -106 -35 -112 -3 -9
10 -13 44 -13 40 0 50 3 54 20 4 15 14 20 40 20 27 0 37 -5 42 -20 5 -16 15
-20 56 -20 27 0 49 4 49 8 0 4 -17 59 -38 122 l-39 115 -66 3 c-48 2 -69 -1
-72 -10z m90 -95 c6 -41 6 -43 -19 -43 -29 0 -33 17 -15 69 14 39 25 31 34
-26z"/>
<path d="M1900 340 l0 -40 51 0 c43 0 50 3 45 16 -3 9 -6 27 -6 40 0 22 -4 24
-45 24 l-45 0 0 -40z"/>
</g>
</svg>
