%TF.GenerationSoftware,KiCad,Pcbnew,(6.0.2-0)*%
%TF.CreationDate,2022-10-03T22:05:57+11:00*%
%TF.ProjectId,ameoba,616d656f-6261-42e6-9b69-6361645f7063,rev?*%
%TF.SameCoordinates,Original*%
%TF.FileFunction,Legend,Top*%
%TF.FilePolarity,Positive*%
%FSLAX46Y46*%
G04 Gerber Fmt 4.6, Leading zero omitted, Abs format (unit mm)*
G04 Created by KiCad (PCBNEW (6.0.2-0)) date 2022-10-03 22:05:57*
%MOMM*%
%LPD*%
G01*
G04 APERTURE LIST*
%ADD10C,0.125000*%
%ADD11C,0.150000*%
%ADD12C,0.120000*%
G04 APERTURE END LIST*
D10*
X19011095Y-18925886D02*
X18963476Y-18902076D01*
X18892048Y-18902076D01*
X18820619Y-18925886D01*
X18773000Y-18973505D01*
X18749190Y-19021124D01*
X18725381Y-19116362D01*
X18725381Y-19187790D01*
X18749190Y-19283028D01*
X18773000Y-19330647D01*
X18820619Y-19378266D01*
X18892048Y-19402076D01*
X18939667Y-19402076D01*
X19011095Y-19378266D01*
X19034905Y-19354457D01*
X19034905Y-19187790D01*
X18939667Y-19187790D01*
X19249190Y-19402076D02*
X19249190Y-18902076D01*
X19534905Y-19402076D01*
X19534905Y-18902076D01*
X19773000Y-19402076D02*
X19773000Y-18902076D01*
X19892048Y-18902076D01*
X19963476Y-18925886D01*
X20011095Y-18973505D01*
X20034905Y-19021124D01*
X20058714Y-19116362D01*
X20058714Y-19187790D01*
X20034905Y-19283028D01*
X20011095Y-19330647D01*
X19963476Y-19378266D01*
X19892048Y-19402076D01*
X19773000Y-19402076D01*
X32398926Y-31081675D02*
X32565593Y-31581675D01*
X32732259Y-31081675D01*
X33184640Y-31534056D02*
X33160831Y-31557865D01*
X33089402Y-31581675D01*
X33041783Y-31581675D01*
X32970354Y-31557865D01*
X32922735Y-31510246D01*
X32898926Y-31462627D01*
X32875116Y-31367389D01*
X32875116Y-31295961D01*
X32898926Y-31200723D01*
X32922735Y-31153104D01*
X32970354Y-31105485D01*
X33041783Y-31081675D01*
X33089402Y-31081675D01*
X33160831Y-31105485D01*
X33184640Y-31129294D01*
X33684640Y-31534056D02*
X33660831Y-31557865D01*
X33589402Y-31581675D01*
X33541783Y-31581675D01*
X33470354Y-31557865D01*
X33422735Y-31510246D01*
X33398926Y-31462627D01*
X33375116Y-31367389D01*
X33375116Y-31295961D01*
X33398926Y-31200723D01*
X33422735Y-31153104D01*
X33470354Y-31105485D01*
X33541783Y-31081675D01*
X33589402Y-31081675D01*
X33660831Y-31105485D01*
X33684640Y-31129294D01*
X16983156Y-25678943D02*
X16816490Y-25440848D01*
X16697442Y-25678943D02*
X16697442Y-25178943D01*
X16887918Y-25178943D01*
X16935537Y-25202753D01*
X16959347Y-25226562D01*
X16983156Y-25274181D01*
X16983156Y-25345610D01*
X16959347Y-25393229D01*
X16935537Y-25417038D01*
X16887918Y-25440848D01*
X16697442Y-25440848D01*
X17292680Y-25178943D02*
X17387918Y-25178943D01*
X17435537Y-25202753D01*
X17483156Y-25250372D01*
X17506966Y-25345610D01*
X17506966Y-25512276D01*
X17483156Y-25607514D01*
X17435537Y-25655133D01*
X17387918Y-25678943D01*
X17292680Y-25678943D01*
X17245061Y-25655133D01*
X17197442Y-25607514D01*
X17173633Y-25512276D01*
X17173633Y-25345610D01*
X17197442Y-25250372D01*
X17245061Y-25202753D01*
X17292680Y-25178943D01*
X17673633Y-25178943D02*
X17792680Y-25678943D01*
X17887918Y-25321800D01*
X17983156Y-25678943D01*
X18102204Y-25178943D01*
X17265269Y-31109444D02*
X17431936Y-31609444D01*
X17598602Y-31109444D01*
X18050983Y-31561825D02*
X18027174Y-31585634D01*
X17955745Y-31609444D01*
X17908126Y-31609444D01*
X17836697Y-31585634D01*
X17789078Y-31538015D01*
X17765269Y-31490396D01*
X17741459Y-31395158D01*
X17741459Y-31323730D01*
X17765269Y-31228492D01*
X17789078Y-31180873D01*
X17836697Y-31133254D01*
X17908126Y-31109444D01*
X17955745Y-31109444D01*
X18027174Y-31133254D01*
X18050983Y-31157063D01*
X18550983Y-31561825D02*
X18527174Y-31585634D01*
X18455745Y-31609444D01*
X18408126Y-31609444D01*
X18336697Y-31585634D01*
X18289078Y-31538015D01*
X18265269Y-31490396D01*
X18241459Y-31395158D01*
X18241459Y-31323730D01*
X18265269Y-31228492D01*
X18289078Y-31180873D01*
X18336697Y-31133254D01*
X18408126Y-31109444D01*
X18455745Y-31109444D01*
X18527174Y-31133254D01*
X18550983Y-31157063D01*
X32897487Y-25618279D02*
X32730821Y-25380184D01*
X32611773Y-25618279D02*
X32611773Y-25118279D01*
X32802249Y-25118279D01*
X32849868Y-25142089D01*
X32873678Y-25165898D01*
X32897487Y-25213517D01*
X32897487Y-25284946D01*
X32873678Y-25332565D01*
X32849868Y-25356374D01*
X32802249Y-25380184D01*
X32611773Y-25380184D01*
X33207011Y-25118279D02*
X33302249Y-25118279D01*
X33349868Y-25142089D01*
X33397487Y-25189708D01*
X33421297Y-25284946D01*
X33421297Y-25451612D01*
X33397487Y-25546850D01*
X33349868Y-25594469D01*
X33302249Y-25618279D01*
X33207011Y-25618279D01*
X33159392Y-25594469D01*
X33111773Y-25546850D01*
X33087964Y-25451612D01*
X33087964Y-25284946D01*
X33111773Y-25189708D01*
X33159392Y-25142089D01*
X33207011Y-25118279D01*
X33587964Y-25118279D02*
X33707011Y-25618279D01*
X33802249Y-25261136D01*
X33897487Y-25618279D01*
X34016535Y-25118279D01*
X20581060Y-32916024D02*
X20533441Y-32892214D01*
X20462013Y-32892214D01*
X20390584Y-32916024D01*
X20342965Y-32963643D01*
X20319155Y-33011262D01*
X20295346Y-33106500D01*
X20295346Y-33177928D01*
X20319155Y-33273166D01*
X20342965Y-33320785D01*
X20390584Y-33368404D01*
X20462013Y-33392214D01*
X20509632Y-33392214D01*
X20581060Y-33368404D01*
X20604870Y-33344595D01*
X20604870Y-33177928D01*
X20509632Y-33177928D01*
X20819155Y-33392214D02*
X20819155Y-32892214D01*
X21104870Y-33392214D01*
X21104870Y-32892214D01*
X21342965Y-33392214D02*
X21342965Y-32892214D01*
X21462013Y-32892214D01*
X21533441Y-32916024D01*
X21581060Y-32963643D01*
X21604870Y-33011262D01*
X21628679Y-33106500D01*
X21628679Y-33177928D01*
X21604870Y-33273166D01*
X21581060Y-33320785D01*
X21533441Y-33368404D01*
X21462013Y-33392214D01*
X21342965Y-33392214D01*
X31058436Y-19489275D02*
X31082245Y-19513085D01*
X31106055Y-19584513D01*
X31106055Y-19632132D01*
X31082245Y-19703561D01*
X31034626Y-19751180D01*
X30987007Y-19774989D01*
X30891769Y-19798799D01*
X30820341Y-19798799D01*
X30725103Y-19774989D01*
X30677484Y-19751180D01*
X30629865Y-19703561D01*
X30606055Y-19632132D01*
X30606055Y-19584513D01*
X30629865Y-19513085D01*
X30653674Y-19489275D01*
X30606055Y-19179751D02*
X30606055Y-19084513D01*
X30629865Y-19036894D01*
X30677484Y-18989275D01*
X30772722Y-18965466D01*
X30939388Y-18965466D01*
X31034626Y-18989275D01*
X31082245Y-19036894D01*
X31106055Y-19084513D01*
X31106055Y-19179751D01*
X31082245Y-19227370D01*
X31034626Y-19274989D01*
X30939388Y-19298799D01*
X30772722Y-19298799D01*
X30677484Y-19274989D01*
X30629865Y-19227370D01*
X30606055Y-19179751D01*
X31106055Y-18513085D02*
X31106055Y-18751180D01*
X30606055Y-18751180D01*
X30606055Y-18346418D02*
X31010817Y-18346418D01*
X31058436Y-18322608D01*
X31082245Y-18298799D01*
X31106055Y-18251180D01*
X31106055Y-18155942D01*
X31082245Y-18108323D01*
X31058436Y-18084513D01*
X31010817Y-18060704D01*
X30606055Y-18060704D01*
X31106055Y-17822608D02*
X30606055Y-17822608D01*
X30963198Y-17655942D01*
X30606055Y-17489275D01*
X31106055Y-17489275D01*
X31106055Y-17251180D02*
X30606055Y-17251180D01*
X31106055Y-16965466D01*
X30606055Y-16965466D01*
X32384442Y-27660652D02*
X32384442Y-27160652D01*
X32503490Y-27160652D01*
X32574919Y-27184462D01*
X32622538Y-27232081D01*
X32646347Y-27279700D01*
X32670157Y-27374938D01*
X32670157Y-27446366D01*
X32646347Y-27541604D01*
X32622538Y-27589223D01*
X32574919Y-27636842D01*
X32503490Y-27660652D01*
X32384442Y-27660652D01*
X32979681Y-27160652D02*
X33074919Y-27160652D01*
X33122538Y-27184462D01*
X33170157Y-27232081D01*
X33193966Y-27327319D01*
X33193966Y-27493985D01*
X33170157Y-27589223D01*
X33122538Y-27636842D01*
X33074919Y-27660652D01*
X32979681Y-27660652D01*
X32932061Y-27636842D01*
X32884442Y-27589223D01*
X32860633Y-27493985D01*
X32860633Y-27327319D01*
X32884442Y-27232081D01*
X32932061Y-27184462D01*
X32979681Y-27160652D01*
X33408252Y-27160652D02*
X33408252Y-27565414D01*
X33432061Y-27613033D01*
X33455871Y-27636842D01*
X33503490Y-27660652D01*
X33598728Y-27660652D01*
X33646347Y-27636842D01*
X33670157Y-27613033D01*
X33693966Y-27565414D01*
X33693966Y-27160652D01*
X33860633Y-27160652D02*
X34146347Y-27160652D01*
X34003490Y-27660652D02*
X34003490Y-27160652D01*
X31305214Y-33730216D02*
X31329023Y-33754026D01*
X31352833Y-33825454D01*
X31352833Y-33873073D01*
X31329023Y-33944502D01*
X31281404Y-33992121D01*
X31233785Y-34015930D01*
X31138547Y-34039740D01*
X31067119Y-34039740D01*
X30971881Y-34015930D01*
X30924262Y-33992121D01*
X30876643Y-33944502D01*
X30852833Y-33873073D01*
X30852833Y-33825454D01*
X30876643Y-33754026D01*
X30900452Y-33730216D01*
X30852833Y-33420692D02*
X30852833Y-33325454D01*
X30876643Y-33277835D01*
X30924262Y-33230216D01*
X31019500Y-33206407D01*
X31186166Y-33206407D01*
X31281404Y-33230216D01*
X31329023Y-33277835D01*
X31352833Y-33325454D01*
X31352833Y-33420692D01*
X31329023Y-33468311D01*
X31281404Y-33515930D01*
X31186166Y-33539740D01*
X31019500Y-33539740D01*
X30924262Y-33515930D01*
X30876643Y-33468311D01*
X30852833Y-33420692D01*
X31352833Y-32754026D02*
X31352833Y-32992121D01*
X30852833Y-32992121D01*
X30852833Y-32587359D02*
X31257595Y-32587359D01*
X31305214Y-32563549D01*
X31329023Y-32539740D01*
X31352833Y-32492121D01*
X31352833Y-32396883D01*
X31329023Y-32349264D01*
X31305214Y-32325454D01*
X31257595Y-32301645D01*
X30852833Y-32301645D01*
X31352833Y-32063549D02*
X30852833Y-32063549D01*
X31209976Y-31896883D01*
X30852833Y-31730216D01*
X31352833Y-31730216D01*
X31352833Y-31492121D02*
X30852833Y-31492121D01*
X31352833Y-31206407D01*
X30852833Y-31206407D01*
X17288761Y-27519101D02*
X17288761Y-27019101D01*
X17407808Y-27019101D01*
X17479237Y-27042911D01*
X17526856Y-27090530D01*
X17550666Y-27138149D01*
X17574475Y-27233387D01*
X17574475Y-27304815D01*
X17550666Y-27400053D01*
X17526856Y-27447672D01*
X17479237Y-27495291D01*
X17407808Y-27519101D01*
X17288761Y-27519101D01*
X17788761Y-27519101D02*
X17788761Y-27019101D01*
X18026856Y-27519101D02*
X18026856Y-27019101D01*
X18312570Y-27519101D01*
X18312570Y-27019101D01*
D11*
%TO.C,*%
%TO.C,G\u002A\u002A\u002A*%
G36*
X19668677Y-21517421D02*
G01*
X19665095Y-21530605D01*
X19661394Y-21539288D01*
X19661246Y-21539497D01*
X19657655Y-21546537D01*
X19651628Y-21560463D01*
X19644352Y-21578507D01*
X19642976Y-21582045D01*
X19628519Y-21619436D01*
X19562288Y-21619436D01*
X19533672Y-21619190D01*
X19514073Y-21618363D01*
X19502201Y-21616827D01*
X19496768Y-21614450D01*
X19496057Y-21612731D01*
X19499357Y-21602903D01*
X19500767Y-21601127D01*
X19504562Y-21594415D01*
X19510876Y-21580420D01*
X19518659Y-21561541D01*
X19523237Y-21549812D01*
X19540996Y-21503395D01*
X19606646Y-21501949D01*
X19672296Y-21500502D01*
X19668677Y-21517421D01*
G37*
G36*
X21786144Y-23207546D02*
G01*
X21810165Y-23208408D01*
X21830776Y-23209986D01*
X21845692Y-23212270D01*
X21852502Y-23215075D01*
X21855405Y-23224412D01*
X21856977Y-23243857D01*
X21857223Y-23273463D01*
X21857002Y-23285989D01*
X21855549Y-23349730D01*
X21777639Y-23351150D01*
X21746640Y-23351549D01*
X21724389Y-23351358D01*
X21709329Y-23350461D01*
X21699905Y-23348740D01*
X21694561Y-23346077D01*
X21693273Y-23344790D01*
X21690904Y-23336728D01*
X21689358Y-23321017D01*
X21688603Y-23300288D01*
X21688611Y-23277172D01*
X21689350Y-23254299D01*
X21690790Y-23234301D01*
X21692903Y-23219807D01*
X21694763Y-23214350D01*
X21701599Y-23211472D01*
X21716439Y-23209364D01*
X21736998Y-23208014D01*
X21760993Y-23207411D01*
X21786144Y-23207546D01*
G37*
G36*
X22312640Y-23089284D02*
G01*
X22322625Y-23044389D01*
X22339247Y-23006058D01*
X22362031Y-22974942D01*
X22390501Y-22951695D01*
X22423260Y-22937233D01*
X22469917Y-22925091D01*
X22509720Y-22918168D01*
X22544670Y-22916391D01*
X22576766Y-22919685D01*
X22608007Y-22927975D01*
X22614090Y-22930138D01*
X22630279Y-22937693D01*
X22647655Y-22948245D01*
X22663814Y-22959998D01*
X22676357Y-22971158D01*
X22682881Y-22979928D01*
X22683306Y-22981874D01*
X22686074Y-22989317D01*
X22692828Y-23000477D01*
X22693717Y-23001744D01*
X22700861Y-23014070D01*
X22709474Y-23032168D01*
X22717461Y-23051535D01*
X22723720Y-23069236D01*
X22727448Y-23084211D01*
X22729088Y-23099986D01*
X22729082Y-23120085D01*
X22728352Y-23138279D01*
X22722067Y-23189302D01*
X22708438Y-23233092D01*
X22687542Y-23269576D01*
X22659458Y-23298681D01*
X22624263Y-23320337D01*
X22582037Y-23334470D01*
X22532857Y-23341008D01*
X22507955Y-23341446D01*
X22486715Y-23340450D01*
X22466507Y-23338380D01*
X22455012Y-23336383D01*
X22418022Y-23322689D01*
X22383998Y-23300634D01*
X22354875Y-23272019D01*
X22332587Y-23238644D01*
X22321710Y-23212206D01*
X22313467Y-23173753D01*
X22310272Y-23131348D01*
X22310366Y-23129627D01*
X22484747Y-23129627D01*
X22485028Y-23158913D01*
X22486026Y-23179983D01*
X22487973Y-23194923D01*
X22491102Y-23205821D01*
X22493905Y-23211771D01*
X22505806Y-23224839D01*
X22520773Y-23228922D01*
X22536328Y-23223732D01*
X22543599Y-23217521D01*
X22552576Y-23201779D01*
X22558572Y-23178814D01*
X22561625Y-23151262D01*
X22561774Y-23121763D01*
X22559058Y-23092956D01*
X22553514Y-23067477D01*
X22545183Y-23047967D01*
X22541037Y-23042380D01*
X22527928Y-23034343D01*
X22513175Y-23035517D01*
X22498988Y-23045549D01*
X22495572Y-23049688D01*
X22491019Y-23056824D01*
X22487944Y-23065136D01*
X22486066Y-23076710D01*
X22485101Y-23093632D01*
X22484767Y-23117986D01*
X22484747Y-23129627D01*
X22310366Y-23129627D01*
X22312512Y-23090244D01*
X22312640Y-23089284D01*
G37*
G36*
X21518345Y-22918566D02*
G01*
X21555687Y-22928944D01*
X21588020Y-22944428D01*
X21614103Y-22964581D01*
X21632699Y-22988968D01*
X21641383Y-23011356D01*
X21644785Y-23027884D01*
X21644882Y-23039482D01*
X21640365Y-23046951D01*
X21629930Y-23051093D01*
X21612270Y-23052709D01*
X21586079Y-23052600D01*
X21574645Y-23052303D01*
X21548139Y-23051338D01*
X21529712Y-23049956D01*
X21517128Y-23047759D01*
X21508152Y-23044347D01*
X21500548Y-23039320D01*
X21500139Y-23038999D01*
X21480414Y-23029295D01*
X21458689Y-23027924D01*
X21448540Y-23030526D01*
X21441259Y-23034591D01*
X21440824Y-23038960D01*
X21447897Y-23043963D01*
X21463141Y-23049927D01*
X21487217Y-23057182D01*
X21519308Y-23065681D01*
X21563955Y-23079937D01*
X21599147Y-23097727D01*
X21625245Y-23119412D01*
X21642611Y-23145355D01*
X21651604Y-23175918D01*
X21653114Y-23200079D01*
X21648242Y-23237831D01*
X21634871Y-23269745D01*
X21613023Y-23295800D01*
X21582718Y-23315974D01*
X21543977Y-23330245D01*
X21525637Y-23334390D01*
X21496272Y-23338527D01*
X21463499Y-23340796D01*
X21431477Y-23341065D01*
X21404365Y-23339199D01*
X21399123Y-23338431D01*
X21363516Y-23329002D01*
X21334326Y-23313156D01*
X21315602Y-23296792D01*
X21294932Y-23272970D01*
X21282022Y-23251400D01*
X21275500Y-23229540D01*
X21274393Y-23220414D01*
X21272768Y-23200167D01*
X21351216Y-23198744D01*
X21429664Y-23197322D01*
X21437696Y-23212852D01*
X21449494Y-23226724D01*
X21464860Y-23232360D01*
X21481151Y-23228794D01*
X21481160Y-23228790D01*
X21490763Y-23220405D01*
X21490896Y-23211349D01*
X21482310Y-23202345D01*
X21465755Y-23194116D01*
X21441982Y-23187385D01*
X21437234Y-23186434D01*
X21397476Y-23177834D01*
X21366216Y-23168508D01*
X21341638Y-23157815D01*
X21323205Y-23146095D01*
X21298522Y-23121849D01*
X21282698Y-23094362D01*
X21275345Y-23064961D01*
X21276074Y-23034975D01*
X21284497Y-23005731D01*
X21300225Y-22978558D01*
X21322870Y-22954782D01*
X21352044Y-22935732D01*
X21387358Y-22922736D01*
X21388639Y-22922422D01*
X21433583Y-22914869D01*
X21477231Y-22913729D01*
X21518345Y-22918566D01*
G37*
G36*
X19445918Y-21728104D02*
G01*
X19462955Y-21729082D01*
X19473311Y-21730510D01*
X19475420Y-21731609D01*
X19473650Y-21737838D01*
X19468918Y-21751272D01*
X19462076Y-21769535D01*
X19458294Y-21779314D01*
X19441177Y-21823152D01*
X19391673Y-21824623D01*
X19370161Y-21824860D01*
X19352817Y-21824293D01*
X19342019Y-21823041D01*
X19339688Y-21822044D01*
X19340413Y-21815792D01*
X19344405Y-21802354D01*
X19350930Y-21784049D01*
X19355284Y-21772867D01*
X19373360Y-21727741D01*
X19424394Y-21727741D01*
X19445918Y-21728104D01*
G37*
G36*
X22916300Y-20418444D02*
G01*
X22927428Y-20419211D01*
X22932938Y-20420898D01*
X22934393Y-20423700D01*
X22933768Y-20426639D01*
X22930733Y-20435113D01*
X22924938Y-20450755D01*
X22917302Y-20471098D01*
X22911132Y-20487395D01*
X22891540Y-20538969D01*
X22826103Y-20540412D01*
X22797802Y-20540799D01*
X22778485Y-20540424D01*
X22766844Y-20539183D01*
X22761568Y-20536974D01*
X22760907Y-20535255D01*
X22762855Y-20528043D01*
X22767955Y-20513517D01*
X22775400Y-20493887D01*
X22783105Y-20474502D01*
X22805061Y-20420350D01*
X22870936Y-20418903D01*
X22897991Y-20418406D01*
X22916300Y-20418444D01*
G37*
G36*
X20691484Y-21061476D02*
G01*
X20700243Y-21039233D01*
X20710320Y-21013647D01*
X20723663Y-20979796D01*
X20739747Y-20939011D01*
X20758049Y-20892621D01*
X20778043Y-20841953D01*
X20799205Y-20788339D01*
X20808608Y-20764521D01*
X20913504Y-20764521D01*
X20946777Y-20847725D01*
X20960487Y-20882104D01*
X20975483Y-20919867D01*
X20990243Y-20957170D01*
X21003244Y-20990171D01*
X21007316Y-21000553D01*
X21017283Y-21025724D01*
X21026143Y-21047582D01*
X21033124Y-21064262D01*
X21037456Y-21073900D01*
X21038252Y-21075334D01*
X21042047Y-21083234D01*
X21047013Y-21096610D01*
X21048498Y-21101121D01*
X21051947Y-21110802D01*
X21058705Y-21128771D01*
X21068272Y-21153733D01*
X21080144Y-21184390D01*
X21093822Y-21219446D01*
X21108804Y-21257605D01*
X21119300Y-21284208D01*
X21134740Y-21323268D01*
X21149130Y-21359683D01*
X21161989Y-21392234D01*
X21172837Y-21419705D01*
X21181192Y-21440877D01*
X21186574Y-21454533D01*
X21188321Y-21458984D01*
X21192519Y-21467444D01*
X21195080Y-21469298D01*
X21197447Y-21464137D01*
X21203036Y-21450727D01*
X21211298Y-21430422D01*
X21221684Y-21404577D01*
X21233647Y-21374543D01*
X21241845Y-21353832D01*
X21254537Y-21321267D01*
X21265846Y-21291436D01*
X21275234Y-21265824D01*
X21282165Y-21245917D01*
X21286100Y-21233202D01*
X21286799Y-21229646D01*
X21284972Y-21223075D01*
X21279649Y-21207765D01*
X21271153Y-21184561D01*
X21259805Y-21154305D01*
X21245927Y-21117842D01*
X21229840Y-21076016D01*
X21211865Y-21029669D01*
X21192326Y-20979647D01*
X21171542Y-20926793D01*
X21166905Y-20915047D01*
X21145331Y-20860431D01*
X21124431Y-20807512D01*
X21104590Y-20757266D01*
X21086193Y-20710669D01*
X21069625Y-20668695D01*
X21055272Y-20632322D01*
X21043518Y-20602524D01*
X21034748Y-20580276D01*
X21029348Y-20566555D01*
X21029030Y-20565746D01*
X21021223Y-20546382D01*
X21014818Y-20531481D01*
X21010698Y-20523047D01*
X21009703Y-20521908D01*
X21007485Y-20526944D01*
X21002032Y-20540280D01*
X20993865Y-20560608D01*
X20983507Y-20586623D01*
X20971481Y-20617018D01*
X20960854Y-20644009D01*
X20913504Y-20764521D01*
X20808608Y-20764521D01*
X20821011Y-20733105D01*
X20842937Y-20677583D01*
X20853889Y-20649852D01*
X20884948Y-20571213D01*
X20912433Y-20501601D01*
X20936563Y-20440450D01*
X20955531Y-20392336D01*
X21059317Y-20392336D01*
X21107340Y-20514648D01*
X21118361Y-20542682D01*
X21131883Y-20577019D01*
X21147455Y-20616518D01*
X21164624Y-20660037D01*
X21182940Y-20706432D01*
X21201952Y-20754564D01*
X21221207Y-20803290D01*
X21240254Y-20851468D01*
X21258642Y-20897956D01*
X21275920Y-20941612D01*
X21291636Y-20981295D01*
X21305338Y-21015863D01*
X21316576Y-21044174D01*
X21324897Y-21065086D01*
X21329601Y-21076838D01*
X21335903Y-21090827D01*
X21340615Y-21094981D01*
X21345306Y-21089277D01*
X21350497Y-21076528D01*
X21354486Y-21066150D01*
X21361512Y-21048233D01*
X21370770Y-21024813D01*
X21381457Y-20997924D01*
X21388640Y-20979923D01*
X21399994Y-20951471D01*
X21410606Y-20924797D01*
X21419619Y-20902061D01*
X21426175Y-20885424D01*
X21428598Y-20879204D01*
X21436605Y-20858424D01*
X21389682Y-20739955D01*
X21374948Y-20702722D01*
X21357860Y-20659485D01*
X21338977Y-20611664D01*
X21318860Y-20560683D01*
X21298069Y-20507961D01*
X21277165Y-20454922D01*
X21256707Y-20402987D01*
X21237256Y-20353577D01*
X21219371Y-20308114D01*
X21203614Y-20268020D01*
X21190544Y-20234716D01*
X21180953Y-20210220D01*
X21172173Y-20188389D01*
X21164541Y-20170603D01*
X21158908Y-20158770D01*
X21156202Y-20154778D01*
X21153375Y-20159320D01*
X21147677Y-20171842D01*
X21139824Y-20190655D01*
X21130535Y-20214071D01*
X21126078Y-20225659D01*
X21115906Y-20252197D01*
X21106486Y-20276483D01*
X21098683Y-20296306D01*
X21093364Y-20309456D01*
X21092261Y-20312045D01*
X21086723Y-20325051D01*
X21079149Y-20343327D01*
X21072390Y-20359927D01*
X21059317Y-20392336D01*
X20955531Y-20392336D01*
X20957557Y-20387196D01*
X20975635Y-20341273D01*
X20991016Y-20302117D01*
X21003919Y-20269162D01*
X21014563Y-20241842D01*
X21023167Y-20219594D01*
X21029951Y-20201851D01*
X21035134Y-20188049D01*
X21038935Y-20177622D01*
X21041572Y-20170006D01*
X21043267Y-20164635D01*
X21044236Y-20160944D01*
X21044701Y-20158368D01*
X21044778Y-20157697D01*
X21044782Y-20153897D01*
X21043001Y-20151096D01*
X21038052Y-20149111D01*
X21028550Y-20147762D01*
X21013112Y-20146864D01*
X20990354Y-20146238D01*
X20958892Y-20145700D01*
X20952835Y-20145608D01*
X20859827Y-20144207D01*
X20829753Y-20222969D01*
X20819054Y-20250802D01*
X20809111Y-20276331D01*
X20800728Y-20297511D01*
X20794713Y-20312298D01*
X20792597Y-20317203D01*
X20785680Y-20333104D01*
X20777204Y-20353762D01*
X20767981Y-20377044D01*
X20758825Y-20400815D01*
X20750551Y-20422942D01*
X20743972Y-20441291D01*
X20739901Y-20453727D01*
X20738981Y-20457784D01*
X20736646Y-20466438D01*
X20730823Y-20479532D01*
X20728589Y-20483795D01*
X20724582Y-20492473D01*
X20717342Y-20509512D01*
X20707368Y-20533657D01*
X20695160Y-20563652D01*
X20681217Y-20598244D01*
X20666039Y-20636178D01*
X20650127Y-20676198D01*
X20633981Y-20717051D01*
X20618099Y-20757481D01*
X20602981Y-20796234D01*
X20589129Y-20832055D01*
X20577041Y-20863689D01*
X20573072Y-20874197D01*
X20564981Y-20895378D01*
X20557389Y-20914696D01*
X20551666Y-20928680D01*
X20550691Y-20930928D01*
X20545463Y-20943305D01*
X20537559Y-20962759D01*
X20527525Y-20987890D01*
X20515903Y-21017298D01*
X20503238Y-21049581D01*
X20490072Y-21083338D01*
X20476949Y-21117169D01*
X20464413Y-21149673D01*
X20453007Y-21179448D01*
X20443275Y-21205094D01*
X20435761Y-21225209D01*
X20431007Y-21238394D01*
X20429539Y-21243176D01*
X20427168Y-21251690D01*
X20423129Y-21260049D01*
X20419881Y-21267188D01*
X20413297Y-21282841D01*
X20403817Y-21305926D01*
X20391878Y-21335358D01*
X20377921Y-21370052D01*
X20362384Y-21408925D01*
X20345705Y-21450893D01*
X20339212Y-21467294D01*
X20261706Y-21663274D01*
X20033301Y-21664617D01*
X19804895Y-21665960D01*
X19781989Y-21617604D01*
X19772394Y-21596569D01*
X19764775Y-21578382D01*
X19760095Y-21565430D01*
X19759082Y-21560819D01*
X19759797Y-21558778D01*
X19762533Y-21557093D01*
X19768181Y-21555730D01*
X19777630Y-21554656D01*
X19791772Y-21553838D01*
X19811495Y-21553240D01*
X19837689Y-21552830D01*
X19871245Y-21552575D01*
X19913052Y-21552440D01*
X19964000Y-21552393D01*
X19982297Y-21552390D01*
X20205511Y-21552390D01*
X20211108Y-21538208D01*
X20214032Y-21530804D01*
X20220375Y-21514749D01*
X20229764Y-21490983D01*
X20241829Y-21460448D01*
X20256198Y-21424085D01*
X20272497Y-21382834D01*
X20290356Y-21337638D01*
X20309403Y-21289437D01*
X20318602Y-21266157D01*
X20355596Y-21172536D01*
X20389085Y-21087783D01*
X20419356Y-21011170D01*
X20446696Y-20941972D01*
X20471390Y-20879464D01*
X20493726Y-20822919D01*
X20513990Y-20771612D01*
X20532469Y-20724817D01*
X20549449Y-20681808D01*
X20565217Y-20641859D01*
X20580060Y-20604244D01*
X20594264Y-20568238D01*
X20608116Y-20533115D01*
X20621902Y-20498148D01*
X20635909Y-20462613D01*
X20643419Y-20443558D01*
X20660973Y-20399025D01*
X20678137Y-20355496D01*
X20694360Y-20314366D01*
X20709093Y-20277032D01*
X20721784Y-20244886D01*
X20731884Y-20219324D01*
X20738841Y-20201742D01*
X20739624Y-20199766D01*
X20747862Y-20178764D01*
X20754450Y-20161530D01*
X20758590Y-20150175D01*
X20759610Y-20146790D01*
X20754720Y-20146048D01*
X20741117Y-20145539D01*
X20720400Y-20145281D01*
X20694167Y-20145295D01*
X20664019Y-20145599D01*
X20663522Y-20145606D01*
X20567434Y-20147010D01*
X20539138Y-20218954D01*
X20529163Y-20244527D01*
X20520616Y-20266841D01*
X20514184Y-20284069D01*
X20510555Y-20294385D01*
X20510015Y-20296315D01*
X20506654Y-20305607D01*
X20505579Y-20307500D01*
X20502239Y-20314590D01*
X20496076Y-20329236D01*
X20487796Y-20349628D01*
X20478106Y-20373952D01*
X20467711Y-20400396D01*
X20457318Y-20427149D01*
X20447634Y-20452398D01*
X20439364Y-20474332D01*
X20433215Y-20491137D01*
X20429892Y-20501002D01*
X20429507Y-20502696D01*
X20427247Y-20510598D01*
X20421801Y-20522570D01*
X20421317Y-20523497D01*
X20419239Y-20527446D01*
X20417273Y-20531341D01*
X20415066Y-20536059D01*
X20412267Y-20542479D01*
X20408524Y-20551477D01*
X20403484Y-20563932D01*
X20396797Y-20580720D01*
X20388109Y-20602720D01*
X20377070Y-20630809D01*
X20363327Y-20665864D01*
X20346528Y-20708762D01*
X20326322Y-20760382D01*
X20326184Y-20760736D01*
X20311030Y-20799406D01*
X20296921Y-20835326D01*
X20284336Y-20867283D01*
X20273754Y-20894065D01*
X20265653Y-20914459D01*
X20260513Y-20927252D01*
X20258981Y-20930928D01*
X20253545Y-20943719D01*
X20245523Y-20963460D01*
X20235475Y-20988697D01*
X20223960Y-21017979D01*
X20211537Y-21049851D01*
X20198766Y-21082860D01*
X20186207Y-21115554D01*
X20174419Y-21146480D01*
X20163960Y-21174183D01*
X20155392Y-21197212D01*
X20149272Y-21214113D01*
X20146161Y-21223433D01*
X20145884Y-21224694D01*
X20142792Y-21233372D01*
X20140867Y-21235126D01*
X20136825Y-21241343D01*
X20131218Y-21254516D01*
X20125767Y-21270243D01*
X20110791Y-21311458D01*
X20090672Y-21355403D01*
X20087571Y-21361568D01*
X20081025Y-21374461D01*
X19890721Y-21375815D01*
X19841846Y-21376033D01*
X19798593Y-21375963D01*
X19761795Y-21375622D01*
X19732282Y-21375024D01*
X19710890Y-21374183D01*
X19698449Y-21373116D01*
X19695575Y-21372327D01*
X19692289Y-21365426D01*
X19687749Y-21351395D01*
X19682619Y-21332931D01*
X19677563Y-21312726D01*
X19673245Y-21293477D01*
X19670329Y-21277876D01*
X19669477Y-21268618D01*
X19669743Y-21267446D01*
X19675251Y-21266538D01*
X19689878Y-21265706D01*
X19712427Y-21264976D01*
X19741702Y-21264372D01*
X19776506Y-21263922D01*
X19815643Y-21263650D01*
X19849751Y-21263578D01*
X20027486Y-21263578D01*
X20033258Y-21249395D01*
X20039704Y-21233728D01*
X20045538Y-21219741D01*
X20049530Y-21209827D01*
X20056430Y-21192249D01*
X20065469Y-21168980D01*
X20075882Y-21141994D01*
X20083652Y-21121751D01*
X20094593Y-21093323D01*
X20104739Y-21067219D01*
X20113313Y-21045412D01*
X20119543Y-21029878D01*
X20122107Y-21023761D01*
X20125630Y-21015266D01*
X20132617Y-20997924D01*
X20142769Y-20972494D01*
X20155786Y-20939733D01*
X20171371Y-20900398D01*
X20189223Y-20855246D01*
X20209043Y-20805036D01*
X20230533Y-20750524D01*
X20253393Y-20692469D01*
X20277324Y-20631627D01*
X20302027Y-20568757D01*
X20327204Y-20504615D01*
X20343058Y-20464187D01*
X20358103Y-20425836D01*
X20372087Y-20390236D01*
X20384529Y-20358610D01*
X20394947Y-20332181D01*
X20402859Y-20312175D01*
X20407781Y-20299814D01*
X20409101Y-20296573D01*
X20416674Y-20278292D01*
X20425631Y-20256003D01*
X20435206Y-20231695D01*
X20444634Y-20207356D01*
X20453151Y-20184975D01*
X20459992Y-20166540D01*
X20464391Y-20154040D01*
X20465641Y-20149597D01*
X20460817Y-20147502D01*
X20447652Y-20145920D01*
X20428108Y-20144837D01*
X20404145Y-20144240D01*
X20377724Y-20144116D01*
X20350806Y-20144452D01*
X20325351Y-20145234D01*
X20303321Y-20146449D01*
X20286676Y-20148084D01*
X20277377Y-20150125D01*
X20276260Y-20150878D01*
X20272756Y-20157797D01*
X20266453Y-20172511D01*
X20258122Y-20193137D01*
X20248533Y-20217794D01*
X20244078Y-20229527D01*
X20233905Y-20256305D01*
X20224440Y-20280815D01*
X20216538Y-20300870D01*
X20211054Y-20314285D01*
X20209775Y-20317203D01*
X20204991Y-20328357D01*
X20197257Y-20347228D01*
X20187325Y-20371905D01*
X20175951Y-20400478D01*
X20163889Y-20431037D01*
X20151894Y-20461673D01*
X20140720Y-20490475D01*
X20131122Y-20515534D01*
X20125222Y-20531233D01*
X20119395Y-20546566D01*
X20110413Y-20569720D01*
X20098964Y-20598945D01*
X20085735Y-20632490D01*
X20071414Y-20668605D01*
X20058334Y-20701426D01*
X20043542Y-20738538D01*
X20029156Y-20774802D01*
X20015878Y-20808428D01*
X20004416Y-20837626D01*
X19995473Y-20860606D01*
X19990273Y-20874197D01*
X19981787Y-20896333D01*
X19973393Y-20917521D01*
X19966669Y-20933789D01*
X19965671Y-20936086D01*
X19960308Y-20948863D01*
X19952320Y-20968630D01*
X19942765Y-20992742D01*
X19932700Y-21018554D01*
X19932183Y-21019893D01*
X19907779Y-21083071D01*
X19670974Y-21083071D01*
X19622662Y-21083012D01*
X19577661Y-21082843D01*
X19536990Y-21082577D01*
X19501668Y-21082225D01*
X19472715Y-21081800D01*
X19451148Y-21081313D01*
X19437988Y-21080776D01*
X19434169Y-21080277D01*
X19435384Y-21078756D01*
X19439648Y-21076059D01*
X19447891Y-21071744D01*
X19461040Y-21065369D01*
X19480026Y-21056492D01*
X19505775Y-21044671D01*
X19539218Y-21029464D01*
X19574707Y-21013402D01*
X19601732Y-21000917D01*
X19620523Y-20991472D01*
X19632412Y-20984248D01*
X19638731Y-20978428D01*
X19640812Y-20973192D01*
X19640835Y-20972776D01*
X19650059Y-20846152D01*
X19668912Y-20722817D01*
X19697307Y-20603026D01*
X19735156Y-20487032D01*
X19782371Y-20375090D01*
X19838865Y-20267452D01*
X19904549Y-20164374D01*
X19935154Y-20122104D01*
X19967630Y-20080776D01*
X20003902Y-20037871D01*
X20041810Y-19995767D01*
X20079190Y-19956841D01*
X20113881Y-19923472D01*
X20124089Y-19914330D01*
X20221401Y-19835115D01*
X20321614Y-19765641D01*
X20425291Y-19705649D01*
X20532991Y-19654877D01*
X20645278Y-19613062D01*
X20762711Y-19579943D01*
X20885854Y-19555259D01*
X20898859Y-19553189D01*
X20921563Y-19550082D01*
X20945852Y-19547698D01*
X20973425Y-19545957D01*
X21005982Y-19544779D01*
X21045221Y-19544085D01*
X21092841Y-19543796D01*
X21099996Y-19543784D01*
X21144987Y-19543825D01*
X21181854Y-19544171D01*
X21212785Y-19544963D01*
X21239970Y-19546338D01*
X21265596Y-19548438D01*
X21291853Y-19551401D01*
X21320930Y-19555367D01*
X21350128Y-19559727D01*
X21376337Y-19564517D01*
X21409445Y-19571748D01*
X21446537Y-19580692D01*
X21484695Y-19590624D01*
X21521003Y-19600818D01*
X21546864Y-19608707D01*
X21622810Y-19635138D01*
X21695526Y-19665093D01*
X21767169Y-19699641D01*
X21839898Y-19739853D01*
X21915872Y-19786801D01*
X21946423Y-19806884D01*
X21982931Y-19833290D01*
X22023809Y-19866383D01*
X22067324Y-19904530D01*
X22111746Y-19946102D01*
X22155341Y-19989467D01*
X22196379Y-20032995D01*
X22233127Y-20075054D01*
X22239952Y-20083320D01*
X22287753Y-20141852D01*
X22055352Y-20143194D01*
X21822950Y-20144535D01*
X21793648Y-20220554D01*
X21783044Y-20247921D01*
X21773222Y-20273005D01*
X21765011Y-20293712D01*
X21759237Y-20307949D01*
X21757496Y-20312045D01*
X21751683Y-20325781D01*
X21743295Y-20346397D01*
X21733026Y-20372110D01*
X21721569Y-20401140D01*
X21709616Y-20431706D01*
X21697860Y-20462027D01*
X21686995Y-20490321D01*
X21677712Y-20514807D01*
X21670705Y-20533705D01*
X21666667Y-20545233D01*
X21666217Y-20546705D01*
X21661749Y-20560153D01*
X21657588Y-20569279D01*
X21657152Y-20569913D01*
X21654646Y-20575475D01*
X21648700Y-20589843D01*
X21639630Y-20612220D01*
X21627756Y-20641808D01*
X21613394Y-20677807D01*
X21596863Y-20719419D01*
X21578482Y-20765847D01*
X21558568Y-20816292D01*
X21537440Y-20869955D01*
X21525640Y-20899984D01*
X21503875Y-20955387D01*
X21483084Y-21008262D01*
X21463595Y-21057780D01*
X21445737Y-21103108D01*
X21429838Y-21143415D01*
X21416225Y-21177868D01*
X21405228Y-21205636D01*
X21397174Y-21225887D01*
X21392392Y-21237789D01*
X21391321Y-21240370D01*
X21381568Y-21263377D01*
X21372488Y-21285835D01*
X21364935Y-21305517D01*
X21359765Y-21320193D01*
X21357832Y-21327636D01*
X21357832Y-21327645D01*
X21355586Y-21335917D01*
X21350619Y-21346968D01*
X21346893Y-21355261D01*
X21340016Y-21371714D01*
X21330428Y-21395212D01*
X21318565Y-21424641D01*
X21304867Y-21458888D01*
X21289770Y-21496838D01*
X21273713Y-21537377D01*
X21257135Y-21579391D01*
X21240473Y-21621766D01*
X21224166Y-21663389D01*
X21208651Y-21703144D01*
X21194367Y-21739918D01*
X21181751Y-21772597D01*
X21171242Y-21800067D01*
X21163279Y-21821214D01*
X21158298Y-21834924D01*
X21156727Y-21840014D01*
X21159383Y-21842413D01*
X21168031Y-21844176D01*
X21183687Y-21845373D01*
X21207370Y-21846075D01*
X21240098Y-21846350D01*
X21249533Y-21846360D01*
X21342339Y-21846360D01*
X21352483Y-21824441D01*
X21356086Y-21815941D01*
X21363107Y-21798710D01*
X21373200Y-21773621D01*
X21386020Y-21741548D01*
X21401222Y-21703365D01*
X21418462Y-21659944D01*
X21437393Y-21612158D01*
X21457670Y-21560881D01*
X21478949Y-21506987D01*
X21500884Y-21451347D01*
X21523131Y-21394836D01*
X21545343Y-21338327D01*
X21567176Y-21282694D01*
X21588284Y-21228808D01*
X21608323Y-21177544D01*
X21619023Y-21150116D01*
X21631629Y-21117885D01*
X21643773Y-21087029D01*
X21654667Y-21059536D01*
X21663523Y-21037395D01*
X21669552Y-21022596D01*
X21670142Y-21021182D01*
X21676815Y-21004973D01*
X21686088Y-20981982D01*
X21697484Y-20953428D01*
X21710527Y-20920530D01*
X21724742Y-20884505D01*
X21739652Y-20846571D01*
X21754780Y-20807948D01*
X21769652Y-20769854D01*
X21783791Y-20733506D01*
X21796721Y-20700124D01*
X21807965Y-20670925D01*
X21817048Y-20647128D01*
X21823494Y-20629951D01*
X21826827Y-20620612D01*
X21827184Y-20619302D01*
X21829459Y-20611827D01*
X21834952Y-20600319D01*
X21835132Y-20599986D01*
X21839112Y-20591365D01*
X21846248Y-20574569D01*
X21855951Y-20551035D01*
X21867636Y-20522199D01*
X21880714Y-20489498D01*
X21893781Y-20456451D01*
X21944482Y-20327517D01*
X22397818Y-20324833D01*
X22421951Y-20375170D01*
X22431825Y-20396336D01*
X22439744Y-20414395D01*
X22444769Y-20427135D01*
X22446075Y-20431954D01*
X22443998Y-20433571D01*
X22437273Y-20434913D01*
X22425158Y-20436001D01*
X22406905Y-20436856D01*
X22381772Y-20437500D01*
X22349013Y-20437954D01*
X22307884Y-20438240D01*
X22257639Y-20438379D01*
X22222210Y-20438400D01*
X21998352Y-20438400D01*
X21982644Y-20480949D01*
X21971269Y-20511143D01*
X21958096Y-20545152D01*
X21944641Y-20579122D01*
X21932423Y-20609200D01*
X21927203Y-20621693D01*
X21924107Y-20629251D01*
X21918390Y-20643514D01*
X21909935Y-20664777D01*
X21898625Y-20693338D01*
X21884343Y-20729491D01*
X21866973Y-20773533D01*
X21846397Y-20825759D01*
X21822500Y-20886466D01*
X21795164Y-20955948D01*
X21764273Y-21034502D01*
X21737069Y-21103700D01*
X21721059Y-21144417D01*
X21705727Y-21183386D01*
X21691612Y-21219234D01*
X21679257Y-21250591D01*
X21669201Y-21276083D01*
X21661984Y-21294339D01*
X21658839Y-21302258D01*
X21653132Y-21316676D01*
X21644484Y-21338661D01*
X21633699Y-21366166D01*
X21621578Y-21397147D01*
X21608924Y-21429557D01*
X21607281Y-21433771D01*
X21595267Y-21464502D01*
X21584283Y-21492449D01*
X21574964Y-21516007D01*
X21567947Y-21533569D01*
X21563867Y-21543529D01*
X21563376Y-21544654D01*
X21555982Y-21561676D01*
X21546441Y-21584788D01*
X21535286Y-21612586D01*
X21523050Y-21643670D01*
X21510264Y-21676637D01*
X21497463Y-21710084D01*
X21485177Y-21742609D01*
X21473941Y-21772810D01*
X21464286Y-21799284D01*
X21456745Y-21820630D01*
X21451851Y-21835446D01*
X21450136Y-21842327D01*
X21450205Y-21842615D01*
X21456368Y-21843825D01*
X21471115Y-21844729D01*
X21492720Y-21845279D01*
X21519457Y-21845430D01*
X21545973Y-21845193D01*
X21637909Y-21843781D01*
X21650254Y-21810258D01*
X21657751Y-21790488D01*
X21665002Y-21772328D01*
X21669863Y-21761004D01*
X21674305Y-21750631D01*
X21681574Y-21732822D01*
X21690791Y-21709764D01*
X21701076Y-21683647D01*
X21705099Y-21673328D01*
X21714537Y-21649141D01*
X21726953Y-21617453D01*
X21741524Y-21580355D01*
X21757430Y-21539936D01*
X21773848Y-21498287D01*
X21789958Y-21457497D01*
X21790163Y-21456979D01*
X21820551Y-21380097D01*
X21847349Y-21312254D01*
X21870769Y-21252904D01*
X21891025Y-21201499D01*
X21908329Y-21157491D01*
X21922895Y-21120333D01*
X21934936Y-21089477D01*
X21944665Y-21064375D01*
X21952296Y-21044479D01*
X21958040Y-21029243D01*
X21962112Y-21018118D01*
X21964725Y-21010558D01*
X21966092Y-21006013D01*
X21966433Y-21004092D01*
X21969114Y-20994991D01*
X21973229Y-20987518D01*
X21978892Y-20976781D01*
X21985715Y-20960819D01*
X21989193Y-20951558D01*
X21996613Y-20931690D01*
X22004571Y-20911829D01*
X22007426Y-20905142D01*
X22011673Y-20894969D01*
X22019089Y-20876660D01*
X22029088Y-20851684D01*
X22041084Y-20821510D01*
X22054491Y-20787610D01*
X22068723Y-20751453D01*
X22069635Y-20749131D01*
X22122779Y-20613751D01*
X22200616Y-20613478D01*
X22271476Y-20613339D01*
X22333599Y-20613443D01*
X22386752Y-20613787D01*
X22430706Y-20614367D01*
X22465229Y-20615180D01*
X22490091Y-20616221D01*
X22505061Y-20617486D01*
X22509794Y-20618690D01*
X22513046Y-20625681D01*
X22517509Y-20639917D01*
X22522474Y-20658507D01*
X22527232Y-20678561D01*
X22531074Y-20697190D01*
X22533290Y-20711503D01*
X22533566Y-20715542D01*
X22533742Y-20727079D01*
X22354796Y-20728435D01*
X22175851Y-20729791D01*
X22140263Y-20822624D01*
X22128925Y-20852055D01*
X22118614Y-20878545D01*
X22109983Y-20900439D01*
X22103686Y-20916082D01*
X22100375Y-20923817D01*
X22100304Y-20923958D01*
X22097091Y-20931344D01*
X22090731Y-20946897D01*
X22081794Y-20969161D01*
X22070850Y-20996681D01*
X22058469Y-21028003D01*
X22045222Y-21061672D01*
X22031679Y-21096232D01*
X22018410Y-21130228D01*
X22005985Y-21162206D01*
X21994976Y-21190711D01*
X21985951Y-21214287D01*
X21979481Y-21231480D01*
X21976289Y-21240370D01*
X21971155Y-21254520D01*
X21966730Y-21264575D01*
X21965780Y-21266175D01*
X21963135Y-21271990D01*
X21957174Y-21286336D01*
X21948300Y-21308189D01*
X21936918Y-21336520D01*
X21923431Y-21370305D01*
X21908244Y-21408516D01*
X21891759Y-21450128D01*
X21874381Y-21494113D01*
X21856514Y-21539446D01*
X21838560Y-21585100D01*
X21820925Y-21630049D01*
X21804011Y-21673266D01*
X21788223Y-21713725D01*
X21773964Y-21750400D01*
X21761639Y-21782264D01*
X21751650Y-21808291D01*
X21744402Y-21827454D01*
X21740299Y-21838727D01*
X21739509Y-21841339D01*
X21744332Y-21843395D01*
X21757497Y-21844939D01*
X21777040Y-21845987D01*
X21801002Y-21846553D01*
X21827422Y-21846652D01*
X21854338Y-21846299D01*
X21879790Y-21845508D01*
X21901817Y-21844295D01*
X21918457Y-21842675D01*
X21927750Y-21840661D01*
X21928870Y-21839913D01*
X21933037Y-21832222D01*
X21939456Y-21817948D01*
X21947013Y-21799877D01*
X21954595Y-21780793D01*
X21961090Y-21763478D01*
X21965384Y-21750717D01*
X21966492Y-21745791D01*
X21968708Y-21737922D01*
X21974038Y-21726174D01*
X21974108Y-21726040D01*
X21978509Y-21716476D01*
X21985583Y-21699840D01*
X21994557Y-21678077D01*
X22004658Y-21653131D01*
X22015111Y-21626947D01*
X22025145Y-21601468D01*
X22033984Y-21578639D01*
X22040857Y-21560405D01*
X22044989Y-21548709D01*
X22045809Y-21545793D01*
X22048970Y-21536337D01*
X22052341Y-21529182D01*
X22055560Y-21521871D01*
X22061986Y-21506245D01*
X22071097Y-21483607D01*
X22082373Y-21455262D01*
X22095294Y-21422511D01*
X22109339Y-21386658D01*
X22113091Y-21377040D01*
X22127313Y-21340605D01*
X22140497Y-21306933D01*
X22152131Y-21277326D01*
X22161701Y-21253088D01*
X22168693Y-21235521D01*
X22172596Y-21225926D01*
X22173041Y-21224898D01*
X22177193Y-21215080D01*
X22184119Y-21197977D01*
X22193228Y-21175110D01*
X22203927Y-21147998D01*
X22215626Y-21118163D01*
X22227732Y-21087125D01*
X22239655Y-21056405D01*
X22250803Y-21027523D01*
X22260584Y-21002000D01*
X22268407Y-20981357D01*
X22273680Y-20967113D01*
X22275812Y-20960790D01*
X22275830Y-20960652D01*
X22277850Y-20954097D01*
X22283072Y-20941585D01*
X22287362Y-20932218D01*
X22298939Y-20907720D01*
X22534960Y-20907720D01*
X22599007Y-20907831D01*
X22652817Y-20908164D01*
X22696464Y-20908722D01*
X22730022Y-20909505D01*
X22753567Y-20910516D01*
X22767171Y-20911756D01*
X22770981Y-20913040D01*
X22766772Y-20918948D01*
X22761955Y-20921396D01*
X22751178Y-20925571D01*
X22733860Y-20932903D01*
X22711711Y-20942611D01*
X22686441Y-20953910D01*
X22659759Y-20966019D01*
X22633375Y-20978154D01*
X22608998Y-20989534D01*
X22588337Y-20999374D01*
X22573102Y-21006892D01*
X22565002Y-21011306D01*
X22564171Y-21011969D01*
X22562846Y-21018590D01*
X22561324Y-21033526D01*
X22559768Y-21054784D01*
X22558337Y-21080371D01*
X22557901Y-21089858D01*
X22555036Y-21137237D01*
X22550446Y-21182319D01*
X22543676Y-21228317D01*
X22534273Y-21278442D01*
X22525301Y-21320309D01*
X22517570Y-21351611D01*
X22507219Y-21388710D01*
X22495105Y-21428927D01*
X22482082Y-21469581D01*
X22469008Y-21507994D01*
X22456738Y-21541484D01*
X22447054Y-21565284D01*
X22392662Y-21676860D01*
X22330216Y-21782493D01*
X22260119Y-21881811D01*
X22182773Y-21974446D01*
X22098578Y-22060026D01*
X22007938Y-22138181D01*
X21911253Y-22208541D01*
X21808925Y-22270735D01*
X21701357Y-22324394D01*
X21588949Y-22369147D01*
X21566562Y-22376784D01*
X21467126Y-22406362D01*
X21369694Y-22428068D01*
X21271241Y-22442414D01*
X21168741Y-22449908D01*
X21125572Y-22451108D01*
X21095296Y-22451487D01*
X21067091Y-22451655D01*
X21043256Y-22451613D01*
X21026091Y-22451360D01*
X21020057Y-22451114D01*
X20902232Y-22438858D01*
X20786103Y-22417691D01*
X20672882Y-22387961D01*
X20563780Y-22350018D01*
X20460009Y-22304211D01*
X20399576Y-22272405D01*
X20292907Y-22207147D01*
X20194222Y-22135562D01*
X20103091Y-22057286D01*
X20019080Y-21971955D01*
X19958705Y-21900877D01*
X19917326Y-21848939D01*
X20149844Y-21847597D01*
X20382363Y-21846255D01*
X20401552Y-21796023D01*
X20411331Y-21770694D01*
X20421425Y-21744998D01*
X20430241Y-21722969D01*
X20433567Y-21714847D01*
X20439866Y-21699368D01*
X20448934Y-21676707D01*
X20459805Y-21649300D01*
X20471511Y-21619579D01*
X20478637Y-21601385D01*
X20488171Y-21577042D01*
X20500815Y-21544849D01*
X20515881Y-21506549D01*
X20532684Y-21463884D01*
X20550537Y-21418596D01*
X20568756Y-21372427D01*
X20584249Y-21333203D01*
X20602847Y-21286126D01*
X20622214Y-21237081D01*
X20641555Y-21188082D01*
X20660076Y-21141139D01*
X20663936Y-21131351D01*
X20768558Y-21131351D01*
X20777708Y-21157495D01*
X20785659Y-21178504D01*
X20795123Y-21201228D01*
X20799021Y-21209924D01*
X20805690Y-21224875D01*
X20810108Y-21235813D01*
X20811184Y-21239478D01*
X20812986Y-21244789D01*
X20818015Y-21258244D01*
X20825707Y-21278397D01*
X20835495Y-21303799D01*
X20846814Y-21333004D01*
X20859099Y-21364564D01*
X20871785Y-21397031D01*
X20884305Y-21428957D01*
X20896095Y-21458897D01*
X20906590Y-21485401D01*
X20915223Y-21507022D01*
X20921430Y-21522314D01*
X20924343Y-21529182D01*
X20927413Y-21536615D01*
X20933669Y-21552286D01*
X20942567Y-21574815D01*
X20953565Y-21602823D01*
X20966120Y-21634932D01*
X20979171Y-21668431D01*
X20998142Y-21716919D01*
X21013804Y-21756273D01*
X21026394Y-21787046D01*
X21036149Y-21809789D01*
X21043307Y-21825056D01*
X21048107Y-21833398D01*
X21050784Y-21835368D01*
X21050924Y-21835256D01*
X21053222Y-21830157D01*
X21058736Y-21816776D01*
X21066933Y-21796439D01*
X21077282Y-21770471D01*
X21089251Y-21740200D01*
X21098829Y-21715831D01*
X21144951Y-21598196D01*
X21096188Y-21476014D01*
X21082151Y-21440788D01*
X21068722Y-21406982D01*
X21056586Y-21376330D01*
X21046429Y-21350568D01*
X21038936Y-21331430D01*
X21035639Y-21322888D01*
X21030128Y-21308590D01*
X21021693Y-21286921D01*
X21010851Y-21259197D01*
X20998120Y-21226732D01*
X20984020Y-21190842D01*
X20969068Y-21152840D01*
X20953783Y-21114043D01*
X20938682Y-21075764D01*
X20924285Y-21039319D01*
X20911110Y-21006023D01*
X20899675Y-20977190D01*
X20890498Y-20954136D01*
X20884098Y-20938175D01*
X20881126Y-20930928D01*
X20874519Y-20915376D01*
X20869176Y-20902563D01*
X20863878Y-20889670D01*
X20857941Y-20905142D01*
X20854320Y-20914426D01*
X20847550Y-20931649D01*
X20838280Y-20955161D01*
X20827163Y-20983310D01*
X20814848Y-21014446D01*
X20810281Y-21025982D01*
X20768558Y-21131351D01*
X20663936Y-21131351D01*
X20676984Y-21098267D01*
X20691484Y-21061476D01*
G37*
G36*
X22566305Y-20088663D02*
G01*
X22582313Y-20089450D01*
X22591537Y-20090923D01*
X22595151Y-20093152D01*
X22595314Y-20094022D01*
X22593319Y-20100891D01*
X22588035Y-20115433D01*
X22580162Y-20135809D01*
X22570404Y-20160183D01*
X22565242Y-20172796D01*
X22535485Y-20244999D01*
X22449517Y-20246414D01*
X22416531Y-20246788D01*
X22392674Y-20246615D01*
X22376770Y-20245825D01*
X22367644Y-20244346D01*
X22364121Y-20242107D01*
X22363982Y-20241256D01*
X22365989Y-20234372D01*
X22371228Y-20219796D01*
X22379005Y-20199373D01*
X22388623Y-20174951D01*
X22393637Y-20162482D01*
X22422859Y-20090279D01*
X22509245Y-20088865D01*
X22542340Y-20088491D01*
X22566305Y-20088663D01*
G37*
G36*
X22858004Y-20197294D02*
G01*
X22850553Y-20216334D01*
X22843625Y-20234665D01*
X22840810Y-20242421D01*
X22834432Y-20260472D01*
X22782077Y-20261941D01*
X22760259Y-20262196D01*
X22742895Y-20261718D01*
X22732148Y-20260609D01*
X22729722Y-20259504D01*
X22731496Y-20253242D01*
X22736240Y-20239822D01*
X22743083Y-20221662D01*
X22746483Y-20212926D01*
X22763245Y-20170255D01*
X22816032Y-20170236D01*
X22868820Y-20170218D01*
X22858004Y-20197294D01*
G37*
G36*
X22888111Y-20661231D02*
G01*
X22902799Y-20661738D01*
X22908577Y-20662388D01*
X22910671Y-20664625D01*
X22910883Y-20669796D01*
X22908867Y-20678951D01*
X22904273Y-20693136D01*
X22896755Y-20713402D01*
X22885965Y-20740797D01*
X22871554Y-20776369D01*
X22867403Y-20786522D01*
X22844175Y-20843253D01*
X22745690Y-20844654D01*
X22710052Y-20845016D01*
X22683612Y-20844910D01*
X22665257Y-20844277D01*
X22653880Y-20843058D01*
X22648370Y-20841196D01*
X22647408Y-20839497D01*
X22649342Y-20832785D01*
X22654580Y-20818210D01*
X22662490Y-20797441D01*
X22672436Y-20772147D01*
X22682220Y-20747842D01*
X22716828Y-20662746D01*
X22809488Y-20661333D01*
X22839673Y-20661010D01*
X22866474Y-20660982D01*
X22888111Y-20661231D01*
G37*
G36*
X20453525Y-22927584D02*
G01*
X20486652Y-22925546D01*
X20523481Y-22924537D01*
X20561106Y-22924526D01*
X20596621Y-22925483D01*
X20627119Y-22927378D01*
X20646148Y-22929579D01*
X20692840Y-22940724D01*
X20731532Y-22958358D01*
X20762364Y-22982636D01*
X20785476Y-23013712D01*
X20801007Y-23051741D01*
X20809097Y-23096877D01*
X20810032Y-23110470D01*
X20808354Y-23160917D01*
X20798344Y-23205763D01*
X20780164Y-23244703D01*
X20753975Y-23277429D01*
X20719941Y-23303634D01*
X20703287Y-23312651D01*
X20669356Y-23329101D01*
X20541712Y-23330717D01*
X20414067Y-23332333D01*
X20414067Y-23127203D01*
X20568788Y-23127203D01*
X20568958Y-23158264D01*
X20569432Y-23185730D01*
X20570155Y-23207957D01*
X20571073Y-23223300D01*
X20572130Y-23230116D01*
X20572226Y-23230252D01*
X20582072Y-23233548D01*
X20596991Y-23231326D01*
X20609359Y-23226309D01*
X20623625Y-23214900D01*
X20633823Y-23196986D01*
X20640264Y-23171592D01*
X20643261Y-23137743D01*
X20643570Y-23119460D01*
X20643321Y-23093952D01*
X20642332Y-23076388D01*
X20640235Y-23064404D01*
X20636664Y-23055636D01*
X20632754Y-23049689D01*
X20615633Y-23032262D01*
X20597407Y-23023843D01*
X20582613Y-23024122D01*
X20568788Y-23027592D01*
X20568788Y-23127203D01*
X20414067Y-23127203D01*
X20414067Y-22930919D01*
X20453525Y-22927584D01*
G37*
G36*
X22685779Y-20372262D02*
G01*
X22696803Y-20373317D01*
X22702320Y-20375367D01*
X22703927Y-20378573D01*
X22703935Y-20378897D01*
X22702057Y-20387048D01*
X22697102Y-20402039D01*
X22690092Y-20421245D01*
X22682048Y-20442038D01*
X22673991Y-20461795D01*
X22666943Y-20477888D01*
X22661924Y-20487691D01*
X22661239Y-20488685D01*
X22654607Y-20491814D01*
X22639874Y-20493871D01*
X22616225Y-20494935D01*
X22594999Y-20495131D01*
X22568908Y-20494994D01*
X22551454Y-20494414D01*
X22540961Y-20493145D01*
X22535752Y-20490937D01*
X22534153Y-20487542D01*
X22534132Y-20486106D01*
X22536211Y-20477814D01*
X22541527Y-20462451D01*
X22549212Y-20442410D01*
X22556110Y-20425507D01*
X22577697Y-20373933D01*
X22640816Y-20372485D01*
X22667650Y-20372039D01*
X22685779Y-20372262D01*
G37*
G36*
X19526819Y-21146242D02*
G01*
X19546637Y-21147262D01*
X19556691Y-21148908D01*
X19557945Y-21149951D01*
X19556189Y-21157050D01*
X19551566Y-21170853D01*
X19545042Y-21188486D01*
X19544446Y-21190032D01*
X19535711Y-21212724D01*
X19525478Y-21239500D01*
X19515877Y-21264784D01*
X19515358Y-21266157D01*
X19507241Y-21288420D01*
X19501023Y-21304933D01*
X19495095Y-21316543D01*
X19487848Y-21324097D01*
X19477671Y-21328443D01*
X19462955Y-21330429D01*
X19442090Y-21330901D01*
X19413466Y-21330707D01*
X19392898Y-21330624D01*
X19362434Y-21330481D01*
X19335637Y-21330084D01*
X19314167Y-21329480D01*
X19299685Y-21328714D01*
X19293850Y-21327835D01*
X19293847Y-21327832D01*
X19294757Y-21322381D01*
X19298971Y-21308911D01*
X19305948Y-21288972D01*
X19315145Y-21264113D01*
X19325863Y-21236289D01*
X19360670Y-21147538D01*
X19459308Y-21146137D01*
X19497590Y-21145862D01*
X19526819Y-21146242D01*
G37*
G36*
X19816242Y-21744564D02*
G01*
X19833500Y-21745706D01*
X19841226Y-21747512D01*
X19841600Y-21748111D01*
X19839801Y-21755040D01*
X19835025Y-21768867D01*
X19828201Y-21786943D01*
X19826128Y-21792208D01*
X19818905Y-21811022D01*
X19813483Y-21826349D01*
X19810793Y-21835518D01*
X19810656Y-21836585D01*
X19808607Y-21843791D01*
X19803260Y-21857244D01*
X19796473Y-21872499D01*
X19782290Y-21902983D01*
X19608824Y-21903091D01*
X19612280Y-21891487D01*
X19615416Y-21882573D01*
X19621602Y-21866225D01*
X19630019Y-21844568D01*
X19639847Y-21819729D01*
X19642603Y-21812837D01*
X19669468Y-21745791D01*
X19755534Y-21744377D01*
X19790053Y-21744112D01*
X19816242Y-21744564D01*
G37*
G36*
X19401923Y-21449216D02*
G01*
X19421244Y-21450051D01*
X19435364Y-21451674D01*
X19441707Y-21454080D01*
X19441361Y-21461134D01*
X19437469Y-21475608D01*
X19430716Y-21495518D01*
X19421792Y-21518879D01*
X19411383Y-21543707D01*
X19408094Y-21551101D01*
X19398201Y-21573020D01*
X19268438Y-21573020D01*
X19272025Y-21561416D01*
X19276657Y-21548204D01*
X19283719Y-21530049D01*
X19292121Y-21509526D01*
X19300773Y-21489211D01*
X19308585Y-21471681D01*
X19314468Y-21459512D01*
X19316747Y-21455690D01*
X19323741Y-21453084D01*
X19338311Y-21451101D01*
X19357901Y-21449774D01*
X19379957Y-21449134D01*
X19401923Y-21449216D01*
G37*
G36*
X20874729Y-23098955D02*
G01*
X20888621Y-23056307D01*
X20902555Y-23014524D01*
X20906060Y-23004187D01*
X20932382Y-22926827D01*
X21017478Y-22925276D01*
X21047834Y-22924930D01*
X21076164Y-22924984D01*
X21100159Y-22925408D01*
X21117511Y-22926168D01*
X21123686Y-22926760D01*
X21144798Y-22929796D01*
X21171392Y-23006879D01*
X21180479Y-23033530D01*
X21188230Y-23056863D01*
X21194067Y-23075089D01*
X21197414Y-23086421D01*
X21197986Y-23089147D01*
X21199710Y-23096331D01*
X21204219Y-23110077D01*
X21210244Y-23126620D01*
X21217994Y-23147975D01*
X21226831Y-23173843D01*
X21236169Y-23202322D01*
X21245418Y-23231510D01*
X21253991Y-23259503D01*
X21261301Y-23284400D01*
X21266759Y-23304298D01*
X21269778Y-23317294D01*
X21270189Y-23320631D01*
X21269846Y-23324708D01*
X21267840Y-23327635D01*
X21262705Y-23329601D01*
X21252972Y-23330798D01*
X21237176Y-23331416D01*
X21213849Y-23331646D01*
X21185274Y-23331680D01*
X21152630Y-23331654D01*
X21128784Y-23331188D01*
X21112218Y-23329702D01*
X21101416Y-23326614D01*
X21094861Y-23321344D01*
X21091036Y-23313311D01*
X21088425Y-23301932D01*
X21086953Y-23294014D01*
X21083309Y-23274590D01*
X21033832Y-23276059D01*
X20984356Y-23277527D01*
X20981183Y-23292999D01*
X20977403Y-23308183D01*
X20972199Y-23319404D01*
X20964096Y-23327255D01*
X20951621Y-23332330D01*
X20933299Y-23335223D01*
X20907653Y-23336528D01*
X20873211Y-23336837D01*
X20872266Y-23336837D01*
X20845096Y-23336593D01*
X20826636Y-23335735D01*
X20815293Y-23334077D01*
X20809471Y-23331431D01*
X20807959Y-23329276D01*
X20808657Y-23322313D01*
X20812255Y-23306745D01*
X20818396Y-23283758D01*
X20826721Y-23254535D01*
X20836874Y-23220259D01*
X20848498Y-23182115D01*
X20855795Y-23158723D01*
X21004558Y-23158723D01*
X21004791Y-23161821D01*
X21010646Y-23164050D01*
X21022896Y-23165667D01*
X21038201Y-23166564D01*
X21053221Y-23166634D01*
X21064618Y-23165768D01*
X21069052Y-23163898D01*
X21067921Y-23158140D01*
X21064821Y-23144273D01*
X21060191Y-23124217D01*
X21054471Y-23099891D01*
X21052830Y-23092984D01*
X21045901Y-23064939D01*
X21040608Y-23046193D01*
X21036657Y-23035916D01*
X21033753Y-23033274D01*
X21032338Y-23035131D01*
X21028437Y-23046851D01*
X21023640Y-23064563D01*
X21018472Y-23085859D01*
X21013456Y-23108331D01*
X21009116Y-23129571D01*
X21005975Y-23147171D01*
X21004558Y-23158723D01*
X20855795Y-23158723D01*
X20861235Y-23141286D01*
X20874729Y-23098955D01*
G37*
G36*
X20375405Y-22925960D02*
G01*
X20388592Y-22929584D01*
X20393969Y-22936738D01*
X20392374Y-22948554D01*
X20384642Y-22966166D01*
X20371607Y-22990708D01*
X20371289Y-22991294D01*
X20353529Y-23023987D01*
X20339108Y-23050474D01*
X20326456Y-23073623D01*
X20314005Y-23096301D01*
X20300185Y-23121374D01*
X20291580Y-23136958D01*
X20264504Y-23185972D01*
X20264504Y-23255215D01*
X20264049Y-23288823D01*
X20262668Y-23312486D01*
X20260332Y-23326537D01*
X20258315Y-23330648D01*
X20250795Y-23333459D01*
X20234423Y-23335402D01*
X20208707Y-23336515D01*
X20176596Y-23336837D01*
X20146670Y-23336704D01*
X20125337Y-23336175D01*
X20110876Y-23335058D01*
X20101569Y-23333161D01*
X20095695Y-23330289D01*
X20092531Y-23327406D01*
X20088780Y-23321411D01*
X20086274Y-23312010D01*
X20084791Y-23297335D01*
X20084112Y-23275518D01*
X20083996Y-23255172D01*
X20083996Y-23192371D01*
X20050211Y-23120053D01*
X20036773Y-23092221D01*
X20022977Y-23065255D01*
X20010181Y-23041707D01*
X19999745Y-23024131D01*
X19996881Y-23019834D01*
X19983141Y-22998054D01*
X19972007Y-22976292D01*
X19964462Y-22956891D01*
X19961487Y-22942192D01*
X19962147Y-22936978D01*
X19964858Y-22934139D01*
X19971394Y-22932084D01*
X19983127Y-22930699D01*
X20001427Y-22929868D01*
X20027663Y-22929478D01*
X20052740Y-22929406D01*
X20140426Y-22929406D01*
X20159290Y-22990005D01*
X20166846Y-23013653D01*
X20173620Y-23033708D01*
X20178888Y-23048103D01*
X20181926Y-23054769D01*
X20181989Y-23054844D01*
X20185309Y-23052348D01*
X20190850Y-23042029D01*
X20197613Y-23025863D01*
X20200244Y-23018742D01*
X20208281Y-22996261D01*
X20216155Y-22974252D01*
X20222313Y-22957054D01*
X20222904Y-22955405D01*
X20227299Y-22944511D01*
X20232559Y-22936618D01*
X20240303Y-22931229D01*
X20252149Y-22927843D01*
X20269718Y-22925962D01*
X20294629Y-22925086D01*
X20322268Y-22924762D01*
X20353576Y-22924730D01*
X20375405Y-22925960D01*
G37*
G36*
X19658143Y-22889142D02*
G01*
X19678456Y-22889841D01*
X19691729Y-22891139D01*
X19699047Y-22893087D01*
X19700956Y-22894489D01*
X19704415Y-22901274D01*
X19710775Y-22916022D01*
X19719341Y-22937027D01*
X19729413Y-22962585D01*
X19738458Y-22986137D01*
X19749110Y-23014043D01*
X19758634Y-23038703D01*
X19766378Y-23058450D01*
X19771690Y-23071620D01*
X19773802Y-23076390D01*
X19777443Y-23086184D01*
X19777890Y-23088467D01*
X19779482Y-23095900D01*
X19780926Y-23095650D01*
X19782270Y-23087216D01*
X19783563Y-23070092D01*
X19784853Y-23043775D01*
X19786187Y-23007763D01*
X19786502Y-22998168D01*
X19787949Y-22959804D01*
X19789553Y-22930909D01*
X19791392Y-22910639D01*
X19793544Y-22898148D01*
X19796088Y-22892590D01*
X19796344Y-22892399D01*
X19803713Y-22890920D01*
X19819270Y-22889863D01*
X19840892Y-22889308D01*
X19866460Y-22889339D01*
X19872544Y-22889435D01*
X19942169Y-22890725D01*
X19943513Y-23117311D01*
X19943789Y-23174056D01*
X19943875Y-23221250D01*
X19943752Y-23259655D01*
X19943404Y-23290033D01*
X19942814Y-23313146D01*
X19941965Y-23329757D01*
X19940839Y-23340626D01*
X19939420Y-23346518D01*
X19938355Y-23348024D01*
X19931382Y-23349302D01*
X19915789Y-23350427D01*
X19893269Y-23351333D01*
X19865517Y-23351954D01*
X19834226Y-23352225D01*
X19830556Y-23352230D01*
X19729258Y-23352309D01*
X19721646Y-23332969D01*
X19717296Y-23321587D01*
X19710198Y-23302645D01*
X19701143Y-23278268D01*
X19690924Y-23250586D01*
X19684242Y-23232400D01*
X19674098Y-23205522D01*
X19664826Y-23182397D01*
X19657110Y-23164621D01*
X19651633Y-23153785D01*
X19649407Y-23151172D01*
X19647643Y-23156233D01*
X19646727Y-23171096D01*
X19646664Y-23195284D01*
X19647463Y-23228319D01*
X19648095Y-23245691D01*
X19649342Y-23279507D01*
X19649980Y-23304528D01*
X19649937Y-23322259D01*
X19649142Y-23334205D01*
X19647523Y-23341871D01*
X19645009Y-23346763D01*
X19643197Y-23348838D01*
X19638106Y-23352394D01*
X19630017Y-23354846D01*
X19617187Y-23356381D01*
X19597874Y-23357189D01*
X19570338Y-23357460D01*
X19563766Y-23357466D01*
X19529894Y-23357031D01*
X19505921Y-23355705D01*
X19491470Y-23353457D01*
X19486774Y-23351278D01*
X19485108Y-23346795D01*
X19483751Y-23336541D01*
X19482684Y-23319825D01*
X19481887Y-23295958D01*
X19481343Y-23264249D01*
X19481031Y-23224011D01*
X19480933Y-23174552D01*
X19480967Y-23141115D01*
X19481139Y-23095248D01*
X19481466Y-23051799D01*
X19481926Y-23012039D01*
X19482498Y-22977239D01*
X19483159Y-22948669D01*
X19483889Y-22927600D01*
X19484665Y-22915304D01*
X19484835Y-22913933D01*
X19488321Y-22890725D01*
X19592039Y-22889332D01*
X19629700Y-22888989D01*
X19658143Y-22889142D01*
G37*
G36*
X22145755Y-22922519D02*
G01*
X22175279Y-22925374D01*
X22199079Y-22931021D01*
X22219403Y-22940156D01*
X22238499Y-22953474D01*
X22253456Y-22966710D01*
X22268538Y-22982019D01*
X22278011Y-22995424D01*
X22284437Y-23011319D01*
X22288710Y-23027162D01*
X22292859Y-23046754D01*
X22295346Y-23063874D01*
X22295642Y-23074578D01*
X22293925Y-23086705D01*
X22134047Y-23086705D01*
X22134047Y-23069528D01*
X22130400Y-23052869D01*
X22121074Y-23043206D01*
X22108488Y-23041149D01*
X22095062Y-23047308D01*
X22086057Y-23057439D01*
X22082085Y-23065756D01*
X22079506Y-23077577D01*
X22078083Y-23094938D01*
X22077578Y-23119879D01*
X22077573Y-23130243D01*
X22078243Y-23162151D01*
X22080320Y-23185074D01*
X22084207Y-23200294D01*
X22090306Y-23209092D01*
X22099019Y-23212749D01*
X22103574Y-23213060D01*
X22112647Y-23211062D01*
X22119882Y-23203520D01*
X22126842Y-23189852D01*
X22137108Y-23166644D01*
X22214046Y-23166644D01*
X22246424Y-23166800D01*
X22269785Y-23167710D01*
X22285422Y-23170042D01*
X22294632Y-23174462D01*
X22298711Y-23181636D01*
X22298955Y-23192230D01*
X22296659Y-23206911D01*
X22296283Y-23208933D01*
X22289219Y-23237240D01*
X22278710Y-23259648D01*
X22262523Y-23280141D01*
X22248875Y-23293432D01*
X22219973Y-23315440D01*
X22188305Y-23330377D01*
X22151841Y-23338921D01*
X22108553Y-23341751D01*
X22104284Y-23341748D01*
X22075999Y-23340601D01*
X22051393Y-23337720D01*
X22034595Y-23333760D01*
X21993294Y-23314553D01*
X21959503Y-23288347D01*
X21932830Y-23254762D01*
X21913794Y-23215848D01*
X21908573Y-23200539D01*
X21905121Y-23185538D01*
X21903098Y-23168081D01*
X21902162Y-23145409D01*
X21901966Y-23120228D01*
X21902115Y-23092807D01*
X21902835Y-23073115D01*
X21904534Y-23058566D01*
X21907618Y-23046575D01*
X21912495Y-23034558D01*
X21916936Y-23025272D01*
X21939209Y-22989514D01*
X21967180Y-22960216D01*
X21999236Y-22938957D01*
X22010270Y-22934040D01*
X22024825Y-22928821D01*
X22038837Y-22925313D01*
X22054934Y-22923188D01*
X22075743Y-22922116D01*
X22103889Y-22921769D01*
X22108260Y-22921760D01*
X22145755Y-22922519D01*
G37*
D12*
%TO.C,J3*%
X28869391Y-16904473D02*
X30269391Y-16904473D01*
X30269391Y-18804473D02*
X28869391Y-18804473D01*
X28869391Y-18804473D02*
X28869391Y-16904473D01*
X30269391Y-16904473D02*
X30269391Y-18804473D01*
%TD*%
M02*
