%TF.GenerationSoftware,KiCad,Pcbnew,(6.0.2-0)*%
%TF.CreationDate,2022-10-03T22:05:57+11:00*%
%TF.ProjectId,ameoba,616d656f-6261-42e6-9b69-6361645f7063,rev?*%
%TF.SameCoordinates,Original*%
%TF.FileFunction,Copper,L2,Bot*%
%TF.FilePolarity,Positive*%
%FSLAX46Y46*%
G04 Gerber Fmt 4.6, Leading zero omitted, Abs format (unit mm)*
G04 Created by KiCad (PCBNEW (6.0.2-0)) date 2022-10-03 22:05:57*
%MOMM*%
%LPD*%
G01*
G04 APERTURE LIST*
G04 Aperture macros list*
%AMRoundRect*
0 Rectangle with rounded corners*
0 $1 Rounding radius*
0 $2 $3 $4 $5 $6 $7 $8 $9 X,Y pos of 4 corners*
0 Add a 4 corners polygon primitive as box body*
4,1,4,$2,$3,$4,$5,$6,$7,$8,$9,$2,$3,0*
0 Add four circle primitives for the rounded corners*
1,1,$1+$1,$2,$3*
1,1,$1+$1,$4,$5*
1,1,$1+$1,$6,$7*
1,1,$1+$1,$8,$9*
0 Add four rect primitives between the rounded corners*
20,1,$1+$1,$2,$3,$4,$5,0*
20,1,$1+$1,$4,$5,$6,$7,0*
20,1,$1+$1,$6,$7,$8,$9,0*
20,1,$1+$1,$8,$9,$2,$3,0*%
G04 Aperture macros list end*
%TA.AperFunction,SMDPad,CuDef*%
%ADD10R,1.492724X0.824104*%
%TD*%
%TA.AperFunction,SMDPad,CuDef*%
%ADD11R,1.492724X0.810988*%
%TD*%
%TA.AperFunction,SMDPad,CuDef*%
%ADD12R,1.489015X0.821296*%
%TD*%
%TA.AperFunction,SMDPad,CuDef*%
%ADD13RoundRect,0.205318X0.539189X0.205318X-0.539189X0.205318X-0.539189X-0.205318X0.539189X-0.205318X0*%
%TD*%
%TA.AperFunction,ComponentPad*%
%ADD14R,1.000000X1.500000*%
%TD*%
%TA.AperFunction,ComponentPad*%
%ADD15R,2.500000X1.000000*%
%TD*%
%TA.AperFunction,SMDPad,CuDef*%
%ADD16R,2.600000X2.600000*%
%TD*%
%TA.AperFunction,ComponentPad*%
%ADD17R,1.000000X2.500000*%
%TD*%
%TA.AperFunction,ComponentPad*%
%ADD18R,1.500000X1.000000*%
%TD*%
%TA.AperFunction,SMDPad,CuDef*%
%ADD19R,0.900000X1.200000*%
%TD*%
%TA.AperFunction,ViaPad*%
%ADD20C,0.800000*%
%TD*%
%TA.AperFunction,Conductor*%
%ADD21C,0.500000*%
%TD*%
%TA.AperFunction,Conductor*%
%ADD22C,0.250000*%
%TD*%
G04 APERTURE END LIST*
D10*
%TO.P,REF\u002A\u002A,1*%
%TO.N,VCC*%
X28065013Y-30847946D03*
D11*
%TO.P,REF\u002A\u002A,2*%
%TO.N,DOUT*%
X28065013Y-29345495D03*
D12*
%TO.P,REF\u002A\u002A,4*%
%TO.N,DIN*%
X22755893Y-30849352D03*
D13*
%TO.P,REF\u002A\u002A,3*%
%TO.N,GND*%
X22755893Y-29349364D03*
%TD*%
D14*
%TO.P,,1,Pin_1*%
%TO.N,GND*%
X19421896Y-33125322D03*
%TD*%
D15*
%TO.P,,1,Pin_1*%
%TO.N,VCC*%
X33090198Y-30023078D03*
%TD*%
D16*
%TO.P,S16,1*%
%TO.N,row_1*%
X22125000Y-19390000D03*
%TO.P,S16,2*%
%TO.N,column_1*%
X33675000Y-21590000D03*
%TD*%
D15*
%TO.P,,1,Pin_1*%
%TO.N,DOUT*%
X33120913Y-28579460D03*
%TD*%
D14*
%TO.P,,1,Pin_1*%
%TO.N,GND*%
X19421896Y-17798395D03*
%TD*%
D15*
%TO.P,,1,Pin_1*%
%TO.N,VCC*%
X17763271Y-30023078D03*
%TD*%
D17*
%TO.P,J7,1,Pin_1*%
%TO.N,column_1*%
X29754717Y-32634037D03*
%TD*%
D18*
%TO.P,,1,Pin_1*%
%TO.N,row_2*%
X17333257Y-24217890D03*
%TD*%
D15*
%TO.P,,1,Pin_1*%
%TO.N,DIN*%
X17793986Y-28579460D03*
%TD*%
%TO.P,J5,1,Pin_1*%
%TO.N,row_2*%
X33020000Y-24130000D03*
%TD*%
D14*
%TO.P,J3,1,Pin_1*%
%TO.N,column_1*%
X29569391Y-17854473D03*
%TD*%
D19*
%TO.P,D3,1*%
%TO.N,row_2*%
X23191251Y-22528549D03*
%TO.P,D3,2*%
%TO.N,row_1*%
X19891251Y-22528549D03*
%TD*%
D20*
%TO.N,GND*%
X26670000Y-21590000D03*
X28759342Y-23296431D03*
X21590000Y-26670000D03*
X17947563Y-21177076D03*
X32967336Y-26582966D03*
%TD*%
D21*
%TO.N,DIN*%
X17793986Y-28579460D02*
X19441526Y-28579460D01*
X19441526Y-28579460D02*
X21711418Y-30849352D01*
X21711418Y-30849352D02*
X22755893Y-30849352D01*
%TO.N,VCC*%
X33090198Y-30023078D02*
X32647351Y-30465925D01*
X32647351Y-30465925D02*
X27961377Y-30465925D01*
X27961377Y-31756832D02*
X27276458Y-32441751D01*
X27961377Y-30465925D02*
X27961377Y-31756832D01*
X27276458Y-32441751D02*
X22294115Y-32441751D01*
X22294115Y-32441751D02*
X19875442Y-30023078D01*
X19875442Y-30023078D02*
X17763271Y-30023078D01*
%TO.N,column_1*%
X29569391Y-17854473D02*
X29939473Y-17854473D01*
X29939473Y-17854473D02*
X33675000Y-21590000D01*
%TO.N,row_1*%
X22125000Y-19450000D02*
X22125000Y-20294800D01*
X22125000Y-20294800D02*
X19891251Y-22528549D01*
%TO.N,row_2*%
X17333257Y-24217890D02*
X17501568Y-24049579D01*
X33020000Y-24130000D02*
X32699867Y-23809867D01*
X26338549Y-22528549D02*
X23191251Y-22528549D01*
D22*
X17640410Y-23910737D02*
X17333257Y-24217890D01*
D21*
X18538871Y-24049579D02*
X19010390Y-23578060D01*
X32699867Y-23809867D02*
X29447297Y-23809867D01*
X19010390Y-23578060D02*
X22141740Y-23578060D01*
X27955942Y-24145942D02*
X26338549Y-22528549D01*
X17501568Y-24049579D02*
X18538871Y-24049579D01*
X29447297Y-23809867D02*
X29111222Y-24145942D01*
X29111222Y-24145942D02*
X27955942Y-24145942D01*
X22141740Y-23578060D02*
X23191251Y-22528549D01*
%TO.N,DOUT*%
X27961377Y-28965925D02*
X32734448Y-28965925D01*
X32734448Y-28965925D02*
X33120913Y-28579460D01*
%TD*%
%TA.AperFunction,Conductor*%
%TO.N,GND*%
G36*
X19603312Y-30823629D02*
G01*
X21710345Y-32930662D01*
X21722731Y-32945074D01*
X21731264Y-32956669D01*
X21731269Y-32956674D01*
X21735607Y-32962569D01*
X21741185Y-32967308D01*
X21741188Y-32967311D01*
X21775883Y-32996786D01*
X21783399Y-33003716D01*
X21789094Y-33009411D01*
X21791976Y-33011691D01*
X21811366Y-33027032D01*
X21814770Y-33029823D01*
X21864818Y-33072342D01*
X21870400Y-33077084D01*
X21876916Y-33080412D01*
X21881965Y-33083779D01*
X21887094Y-33086946D01*
X21892831Y-33091485D01*
X21958990Y-33122406D01*
X21962884Y-33124309D01*
X22027923Y-33157520D01*
X22035031Y-33159259D01*
X22040674Y-33161358D01*
X22046437Y-33163275D01*
X22053065Y-33166373D01*
X22060227Y-33167863D01*
X22060228Y-33167863D01*
X22124527Y-33181237D01*
X22128811Y-33182207D01*
X22199725Y-33199559D01*
X22205327Y-33199907D01*
X22205330Y-33199907D01*
X22210879Y-33200251D01*
X22210877Y-33200287D01*
X22214870Y-33200526D01*
X22219062Y-33200900D01*
X22226230Y-33202391D01*
X22303635Y-33200297D01*
X22307043Y-33200251D01*
X27209388Y-33200251D01*
X27228338Y-33201684D01*
X27242573Y-33203850D01*
X27242577Y-33203850D01*
X27249807Y-33204950D01*
X27257099Y-33204357D01*
X27257102Y-33204357D01*
X27302476Y-33200666D01*
X27312691Y-33200251D01*
X27320751Y-33200251D01*
X27338138Y-33198224D01*
X27348965Y-33196962D01*
X27353340Y-33196529D01*
X27418797Y-33191205D01*
X27418800Y-33191204D01*
X27426095Y-33190611D01*
X27433059Y-33188355D01*
X27439018Y-33187164D01*
X27444873Y-33185780D01*
X27452139Y-33184933D01*
X27520785Y-33160016D01*
X27524913Y-33158599D01*
X27587394Y-33138358D01*
X27587396Y-33138357D01*
X27594357Y-33136102D01*
X27600612Y-33132306D01*
X27606086Y-33129800D01*
X27611516Y-33127081D01*
X27618395Y-33124584D01*
X27627980Y-33118300D01*
X27679434Y-33084565D01*
X27683138Y-33082228D01*
X27745565Y-33044346D01*
X27753942Y-33036948D01*
X27753966Y-33036975D01*
X27756958Y-33034322D01*
X27760191Y-33031619D01*
X27766310Y-33027607D01*
X27819586Y-32971368D01*
X27821964Y-32968926D01*
X28450288Y-32340602D01*
X28464700Y-32328216D01*
X28476295Y-32319683D01*
X28476300Y-32319678D01*
X28482195Y-32315340D01*
X28486934Y-32309762D01*
X28486937Y-32309759D01*
X28516412Y-32275064D01*
X28523342Y-32267548D01*
X28529038Y-32261852D01*
X28529743Y-32262557D01*
X28586340Y-32227246D01*
X28657330Y-32228196D01*
X28716537Y-32267376D01*
X28745163Y-32332345D01*
X28746217Y-32348606D01*
X28746217Y-33876000D01*
X28726215Y-33944121D01*
X28672559Y-33990614D01*
X28620217Y-34002000D01*
X20555896Y-34002000D01*
X20487775Y-33981998D01*
X20441282Y-33928342D01*
X20429896Y-33876000D01*
X20429896Y-33397437D01*
X20425421Y-33382198D01*
X20424031Y-33380993D01*
X20416348Y-33379322D01*
X19293896Y-33379322D01*
X19225775Y-33359320D01*
X19179282Y-33305664D01*
X19167896Y-33253322D01*
X19167896Y-32853207D01*
X19675896Y-32853207D01*
X19680371Y-32868446D01*
X19681761Y-32869651D01*
X19689444Y-32871322D01*
X20411780Y-32871322D01*
X20427019Y-32866847D01*
X20428224Y-32865457D01*
X20429895Y-32857774D01*
X20429895Y-32330653D01*
X20429525Y-32323832D01*
X20424001Y-32272970D01*
X20420375Y-32257718D01*
X20375220Y-32137268D01*
X20366682Y-32121673D01*
X20290181Y-32019598D01*
X20277620Y-32007037D01*
X20175545Y-31930536D01*
X20159950Y-31921998D01*
X20039502Y-31876844D01*
X20024247Y-31873217D01*
X19973382Y-31867691D01*
X19966568Y-31867322D01*
X19694011Y-31867322D01*
X19678772Y-31871797D01*
X19677567Y-31873187D01*
X19675896Y-31880870D01*
X19675896Y-32853207D01*
X19167896Y-32853207D01*
X19167896Y-31885438D01*
X19163421Y-31870199D01*
X19162031Y-31868994D01*
X19154348Y-31867323D01*
X18877227Y-31867323D01*
X18870406Y-31867693D01*
X18819544Y-31873217D01*
X18804292Y-31876843D01*
X18683842Y-31921998D01*
X18668247Y-31930536D01*
X18566172Y-32007037D01*
X18553611Y-32019598D01*
X18477110Y-32121673D01*
X18468572Y-32137268D01*
X18423418Y-32257716D01*
X18419791Y-32272971D01*
X18414265Y-32323836D01*
X18413896Y-32330650D01*
X18413896Y-32527065D01*
X18393894Y-32595186D01*
X18340238Y-32641679D01*
X18269964Y-32651783D01*
X18205384Y-32622289D01*
X18185126Y-32599965D01*
X18069167Y-32436493D01*
X18069166Y-32436492D01*
X18065701Y-32431607D01*
X17912905Y-32285337D01*
X17735207Y-32170598D01*
X17652504Y-32137268D01*
X17544587Y-32093776D01*
X17544584Y-32093775D01*
X17539018Y-32091532D01*
X17331418Y-32050990D01*
X17325856Y-32050718D01*
X17169909Y-32050718D01*
X17012189Y-32065766D01*
X16809221Y-32125310D01*
X16803894Y-32128054D01*
X16803893Y-32128054D01*
X16691692Y-32185841D01*
X16621973Y-32199250D01*
X16556072Y-32172837D01*
X16514913Y-32114988D01*
X16508000Y-32073825D01*
X16508000Y-31157578D01*
X16528002Y-31089457D01*
X16581658Y-31042964D01*
X16634000Y-31031578D01*
X19061405Y-31031578D01*
X19123587Y-31024823D01*
X19259976Y-30973693D01*
X19376532Y-30886339D01*
X19413391Y-30837158D01*
X19470251Y-30794644D01*
X19541070Y-30789619D01*
X19603312Y-30823629D01*
G37*
%TD.AperFunction*%
%TA.AperFunction,Conductor*%
G36*
X23725875Y-23657051D02*
G01*
X23772368Y-23710707D01*
X23782472Y-23780981D01*
X23753422Y-23845047D01*
X23615991Y-24005390D01*
X23613717Y-24008892D01*
X23613713Y-24008897D01*
X23457430Y-24249551D01*
X23455151Y-24253061D01*
X23453357Y-24256839D01*
X23453356Y-24256841D01*
X23423961Y-24318747D01*
X23328481Y-24519828D01*
X23327202Y-24523811D01*
X23327201Y-24523814D01*
X23255050Y-24748537D01*
X23238205Y-24801004D01*
X23233436Y-24827512D01*
X23192986Y-25052325D01*
X23185910Y-25091650D01*
X23185721Y-25095817D01*
X23185720Y-25095824D01*
X23177163Y-25284269D01*
X23172514Y-25386659D01*
X23172877Y-25390807D01*
X23172877Y-25390811D01*
X23174517Y-25409553D01*
X23198252Y-25680849D01*
X23199162Y-25684921D01*
X23199163Y-25684926D01*
X23257659Y-25946622D01*
X23262672Y-25969050D01*
X23364644Y-26246199D01*
X23366591Y-26249892D01*
X23366592Y-26249894D01*
X23402549Y-26318092D01*
X23502374Y-26507427D01*
X23504794Y-26510832D01*
X23671019Y-26744735D01*
X23671024Y-26744741D01*
X23673443Y-26748145D01*
X23676287Y-26751195D01*
X23676292Y-26751201D01*
X23811003Y-26895661D01*
X23874846Y-26964124D01*
X24103045Y-27151568D01*
X24354029Y-27307185D01*
X24623390Y-27428241D01*
X24796191Y-27479755D01*
X24855052Y-27497302D01*
X24906395Y-27512608D01*
X24910515Y-27513261D01*
X24910517Y-27513261D01*
X25194592Y-27558255D01*
X25194598Y-27558256D01*
X25198073Y-27558806D01*
X25222632Y-27559921D01*
X25289017Y-27562936D01*
X25289038Y-27562936D01*
X25290437Y-27563000D01*
X25474901Y-27563000D01*
X25694664Y-27548403D01*
X25698763Y-27547577D01*
X25698767Y-27547576D01*
X25872190Y-27512608D01*
X25984151Y-27490033D01*
X26263375Y-27393888D01*
X26433089Y-27308902D01*
X26523695Y-27263530D01*
X26523697Y-27263529D01*
X26527431Y-27261659D01*
X26771678Y-27095668D01*
X26991827Y-26898832D01*
X26994545Y-26895661D01*
X27181289Y-26677784D01*
X27181292Y-26677780D01*
X27184009Y-26674610D01*
X27186283Y-26671108D01*
X27186287Y-26671103D01*
X27342570Y-26430449D01*
X27342573Y-26430444D01*
X27344849Y-26426939D01*
X27354680Y-26406236D01*
X27469723Y-26163954D01*
X27471519Y-26160172D01*
X27541676Y-25941661D01*
X27560515Y-25882983D01*
X27560515Y-25882982D01*
X27561795Y-25878996D01*
X27589174Y-25726831D01*
X27613351Y-25592459D01*
X27613352Y-25592454D01*
X27614090Y-25588350D01*
X27617581Y-25511486D01*
X27627297Y-25297511D01*
X27627297Y-25297506D01*
X27627486Y-25293341D01*
X27626693Y-25284269D01*
X27602966Y-25013070D01*
X27616955Y-24943466D01*
X27666355Y-24892473D01*
X27735481Y-24876283D01*
X27754145Y-24878729D01*
X27786353Y-24885428D01*
X27790638Y-24886398D01*
X27861552Y-24903750D01*
X27867154Y-24904098D01*
X27867157Y-24904098D01*
X27872706Y-24904442D01*
X27872704Y-24904478D01*
X27876697Y-24904717D01*
X27880889Y-24905091D01*
X27888057Y-24906582D01*
X27965462Y-24904488D01*
X27968870Y-24904442D01*
X29044152Y-24904442D01*
X29063102Y-24905875D01*
X29077337Y-24908041D01*
X29077341Y-24908041D01*
X29084571Y-24909141D01*
X29091863Y-24908548D01*
X29091866Y-24908548D01*
X29137240Y-24904857D01*
X29147455Y-24904442D01*
X29155515Y-24904442D01*
X29172902Y-24902415D01*
X29183729Y-24901153D01*
X29188104Y-24900720D01*
X29253561Y-24895396D01*
X29253564Y-24895395D01*
X29260859Y-24894802D01*
X29267823Y-24892546D01*
X29273782Y-24891355D01*
X29279637Y-24889971D01*
X29286903Y-24889124D01*
X29355549Y-24864207D01*
X29359662Y-24862795D01*
X29423117Y-24842238D01*
X29494085Y-24840272D01*
X29554851Y-24876988D01*
X29586121Y-24940727D01*
X29582281Y-24999465D01*
X29567511Y-25047033D01*
X29556284Y-25131745D01*
X29539280Y-25260041D01*
X29537200Y-25275732D01*
X29537400Y-25281062D01*
X29537400Y-25281063D01*
X29541364Y-25386659D01*
X29545854Y-25506268D01*
X29593228Y-25732050D01*
X29677967Y-25946622D01*
X29797647Y-26143849D01*
X29801144Y-26147879D01*
X29887768Y-26247704D01*
X29948847Y-26318092D01*
X29952978Y-26321479D01*
X30123115Y-26460984D01*
X30123121Y-26460988D01*
X30127243Y-26464368D01*
X30327735Y-26578494D01*
X30332751Y-26580315D01*
X30332756Y-26580317D01*
X30539575Y-26655389D01*
X30539579Y-26655390D01*
X30544590Y-26657209D01*
X30549839Y-26658158D01*
X30549842Y-26658159D01*
X30767523Y-26697522D01*
X30767530Y-26697523D01*
X30771607Y-26698260D01*
X30789344Y-26699096D01*
X30794292Y-26699330D01*
X30794299Y-26699330D01*
X30795780Y-26699400D01*
X30957925Y-26699400D01*
X31024881Y-26693719D01*
X31124562Y-26685261D01*
X31124566Y-26685260D01*
X31129873Y-26684810D01*
X31135028Y-26683472D01*
X31135034Y-26683471D01*
X31348003Y-26628195D01*
X31348007Y-26628194D01*
X31353172Y-26626853D01*
X31358038Y-26624661D01*
X31358041Y-26624660D01*
X31558649Y-26534293D01*
X31563515Y-26532101D01*
X31567935Y-26529125D01*
X31567939Y-26529123D01*
X31714503Y-26430449D01*
X31754885Y-26403262D01*
X31921812Y-26244022D01*
X32059521Y-26058934D01*
X32114305Y-25951183D01*
X32161658Y-25858046D01*
X32161658Y-25858045D01*
X32164077Y-25853288D01*
X32217621Y-25680849D01*
X32230905Y-25638070D01*
X32230906Y-25638064D01*
X32232489Y-25632967D01*
X32262800Y-25404268D01*
X32262139Y-25386659D01*
X32257731Y-25269226D01*
X32275163Y-25200403D01*
X32327037Y-25151930D01*
X32383642Y-25138500D01*
X34318134Y-25138500D01*
X34352393Y-25134778D01*
X34422273Y-25147305D01*
X34474290Y-25195625D01*
X34492000Y-25260041D01*
X34492000Y-27444960D01*
X34471998Y-27513081D01*
X34418342Y-27559574D01*
X34366000Y-27570960D01*
X31822779Y-27570960D01*
X31760597Y-27577715D01*
X31624208Y-27628845D01*
X31507652Y-27716199D01*
X31420298Y-27832755D01*
X31369168Y-27969144D01*
X31362413Y-28031326D01*
X31362413Y-28081425D01*
X31342411Y-28149546D01*
X31288755Y-28196039D01*
X31236413Y-28207425D01*
X27917084Y-28207425D01*
X27837870Y-28216660D01*
X27792967Y-28221895D01*
X27792964Y-28221896D01*
X27785696Y-28222743D01*
X27733879Y-28241552D01*
X27663023Y-28245994D01*
X27601013Y-28211423D01*
X27588247Y-28196194D01*
X27586285Y-28193438D01*
X27586282Y-28193435D01*
X27582606Y-28188272D01*
X27480253Y-28092743D01*
X27360882Y-28019583D01*
X27229304Y-27971740D01*
X27164666Y-27962126D01*
X27148125Y-27959666D01*
X27139931Y-27958169D01*
X27108172Y-27951274D01*
X27108165Y-27951273D01*
X27103416Y-27950242D01*
X27098563Y-27949954D01*
X27098559Y-27949953D01*
X27095762Y-27949787D01*
X27095761Y-27949787D01*
X27090898Y-27949498D01*
X27086046Y-27949961D01*
X27049116Y-27953485D01*
X27036744Y-27954054D01*
X26148065Y-27951209D01*
X23748379Y-27943527D01*
X23742444Y-27943367D01*
X23683899Y-27940403D01*
X23679065Y-27940907D01*
X23679061Y-27940907D01*
X23676271Y-27941198D01*
X23676270Y-27941198D01*
X23671427Y-27941703D01*
X23637687Y-27950619D01*
X23622968Y-27953582D01*
X23588402Y-27958419D01*
X23580219Y-27962108D01*
X23571596Y-27964599D01*
X23571501Y-27964271D01*
X23561614Y-27967548D01*
X23534888Y-27973430D01*
X23406923Y-28030223D01*
X23292880Y-28111431D01*
X23197355Y-28213780D01*
X23124197Y-28333146D01*
X23119544Y-28345943D01*
X23117744Y-28350891D01*
X23075666Y-28408074D01*
X23034830Y-28428725D01*
X23012769Y-28435203D01*
X23011564Y-28436593D01*
X23009893Y-28444276D01*
X23009893Y-29477364D01*
X22989891Y-29545485D01*
X22936235Y-29591978D01*
X22883893Y-29603364D01*
X21590301Y-29603364D01*
X21522180Y-29583362D01*
X21501206Y-29566459D01*
X21012088Y-29077341D01*
X21505365Y-29077341D01*
X21508093Y-29092040D01*
X21520328Y-29095364D01*
X22483778Y-29095364D01*
X22499017Y-29090889D01*
X22500222Y-29089499D01*
X22501893Y-29081816D01*
X22501893Y-28448843D01*
X22497418Y-28433604D01*
X22496028Y-28432399D01*
X22488345Y-28430728D01*
X22172576Y-28430728D01*
X22166060Y-28431065D01*
X22076698Y-28440337D01*
X22063302Y-28443230D01*
X21919003Y-28491372D01*
X21905825Y-28497546D01*
X21776840Y-28577364D01*
X21765439Y-28586400D01*
X21658269Y-28693757D01*
X21649257Y-28705168D01*
X21569657Y-28834303D01*
X21563513Y-28847481D01*
X21515617Y-28991882D01*
X21512751Y-29005248D01*
X21505365Y-29077341D01*
X21012088Y-29077341D01*
X20025296Y-28090549D01*
X20012910Y-28076137D01*
X20004377Y-28064542D01*
X20004372Y-28064537D01*
X20000034Y-28058642D01*
X19994456Y-28053903D01*
X19994453Y-28053900D01*
X19959758Y-28024425D01*
X19952242Y-28017495D01*
X19946547Y-28011800D01*
X19940406Y-28006942D01*
X19924275Y-27994179D01*
X19920871Y-27991388D01*
X19870823Y-27948869D01*
X19870821Y-27948868D01*
X19865241Y-27944127D01*
X19858725Y-27940799D01*
X19853676Y-27937432D01*
X19848547Y-27934265D01*
X19842810Y-27929726D01*
X19776651Y-27898805D01*
X19772751Y-27896899D01*
X19707718Y-27863691D01*
X19700610Y-27861952D01*
X19694967Y-27859853D01*
X19689204Y-27857936D01*
X19682576Y-27854838D01*
X19611109Y-27839973D01*
X19606825Y-27839003D01*
X19581291Y-27832755D01*
X19535916Y-27821652D01*
X19531067Y-27821351D01*
X19466944Y-27791434D01*
X19449408Y-27772454D01*
X19407247Y-27716199D01*
X19290691Y-27628845D01*
X19154302Y-27577715D01*
X19092120Y-27570960D01*
X16634000Y-27570960D01*
X16565879Y-27550958D01*
X16519386Y-27497302D01*
X16508000Y-27444960D01*
X16508000Y-25352390D01*
X16528002Y-25284269D01*
X16581658Y-25237776D01*
X16634000Y-25226390D01*
X18131391Y-25226390D01*
X18193573Y-25219635D01*
X18329962Y-25168505D01*
X18337149Y-25163119D01*
X18345017Y-25158811D01*
X18345753Y-25160155D01*
X18402988Y-25138773D01*
X18472370Y-25153827D01*
X18522599Y-25204003D01*
X18537904Y-25270382D01*
X18537901Y-25270441D01*
X18537200Y-25275732D01*
X18537400Y-25281063D01*
X18537400Y-25281066D01*
X18541364Y-25386659D01*
X18545854Y-25506268D01*
X18593228Y-25732050D01*
X18677967Y-25946622D01*
X18797647Y-26143849D01*
X18801144Y-26147879D01*
X18887768Y-26247704D01*
X18948847Y-26318092D01*
X18952978Y-26321479D01*
X19123115Y-26460984D01*
X19123121Y-26460988D01*
X19127243Y-26464368D01*
X19327735Y-26578494D01*
X19332751Y-26580315D01*
X19332756Y-26580317D01*
X19539575Y-26655389D01*
X19539579Y-26655390D01*
X19544590Y-26657209D01*
X19549839Y-26658158D01*
X19549842Y-26658159D01*
X19767523Y-26697522D01*
X19767530Y-26697523D01*
X19771607Y-26698260D01*
X19789344Y-26699096D01*
X19794292Y-26699330D01*
X19794299Y-26699330D01*
X19795780Y-26699400D01*
X19957925Y-26699400D01*
X20024881Y-26693719D01*
X20124562Y-26685261D01*
X20124566Y-26685260D01*
X20129873Y-26684810D01*
X20135028Y-26683472D01*
X20135034Y-26683471D01*
X20348003Y-26628195D01*
X20348007Y-26628194D01*
X20353172Y-26626853D01*
X20358038Y-26624661D01*
X20358041Y-26624660D01*
X20558649Y-26534293D01*
X20563515Y-26532101D01*
X20567935Y-26529125D01*
X20567939Y-26529123D01*
X20714503Y-26430449D01*
X20754885Y-26403262D01*
X20921812Y-26244022D01*
X21059521Y-26058934D01*
X21114305Y-25951183D01*
X21161658Y-25858046D01*
X21161658Y-25858045D01*
X21164077Y-25853288D01*
X21217621Y-25680849D01*
X21230905Y-25638070D01*
X21230906Y-25638064D01*
X21232489Y-25632967D01*
X21262800Y-25404268D01*
X21261983Y-25382489D01*
X21254346Y-25179063D01*
X21254146Y-25173732D01*
X21206772Y-24947950D01*
X21203920Y-24940727D01*
X21143427Y-24787552D01*
X21122033Y-24733378D01*
X21002353Y-24536151D01*
X21001807Y-24535522D01*
X20978292Y-24469968D01*
X20994254Y-24400789D01*
X21045084Y-24351222D01*
X21104074Y-24336560D01*
X22074670Y-24336560D01*
X22093620Y-24337993D01*
X22107855Y-24340159D01*
X22107859Y-24340159D01*
X22115089Y-24341259D01*
X22122381Y-24340666D01*
X22122384Y-24340666D01*
X22167758Y-24336975D01*
X22177973Y-24336560D01*
X22186033Y-24336560D01*
X22199323Y-24335011D01*
X22214247Y-24333271D01*
X22218622Y-24332838D01*
X22284079Y-24327514D01*
X22284082Y-24327513D01*
X22291377Y-24326920D01*
X22298341Y-24324664D01*
X22304300Y-24323473D01*
X22310155Y-24322089D01*
X22317421Y-24321242D01*
X22386067Y-24296325D01*
X22390195Y-24294908D01*
X22452676Y-24274667D01*
X22452678Y-24274666D01*
X22459639Y-24272411D01*
X22465894Y-24268615D01*
X22471368Y-24266109D01*
X22476798Y-24263390D01*
X22483677Y-24260893D01*
X22495623Y-24253061D01*
X22544716Y-24220874D01*
X22548420Y-24218537D01*
X22610847Y-24180655D01*
X22619224Y-24173257D01*
X22619248Y-24173284D01*
X22622240Y-24170631D01*
X22625473Y-24167928D01*
X22631592Y-24163916D01*
X22684868Y-24107677D01*
X22687246Y-24105235D01*
X23118527Y-23673954D01*
X23180839Y-23639928D01*
X23207622Y-23637049D01*
X23657754Y-23637049D01*
X23725875Y-23657051D01*
G37*
%TD.AperFunction*%
%TA.AperFunction,Conductor*%
G36*
X28503012Y-17038002D02*
G01*
X28549505Y-17091658D01*
X28560891Y-17144000D01*
X28560891Y-18652607D01*
X28567646Y-18714789D01*
X28618776Y-18851178D01*
X28706130Y-18967734D01*
X28822686Y-19055088D01*
X28959075Y-19106218D01*
X29021257Y-19112973D01*
X30073102Y-19112973D01*
X30141223Y-19132975D01*
X30162197Y-19149878D01*
X30381065Y-19368746D01*
X30415091Y-19431058D01*
X30410026Y-19501873D01*
X30367479Y-19558709D01*
X30300760Y-19583534D01*
X30224962Y-19588835D01*
X30119788Y-19596189D01*
X29845030Y-19654591D01*
X29840901Y-19656094D01*
X29840897Y-19656095D01*
X29585219Y-19749154D01*
X29585215Y-19749156D01*
X29581074Y-19750663D01*
X29333058Y-19882536D01*
X29105808Y-20047642D01*
X28903748Y-20242769D01*
X28730812Y-20464118D01*
X28728616Y-20467922D01*
X28728611Y-20467929D01*
X28614794Y-20665067D01*
X28590364Y-20707381D01*
X28485138Y-20967824D01*
X28484073Y-20972097D01*
X28484072Y-20972099D01*
X28422637Y-21218502D01*
X28417183Y-21240376D01*
X28416724Y-21244744D01*
X28416723Y-21244749D01*
X28397589Y-21426804D01*
X28387822Y-21519733D01*
X28387975Y-21524121D01*
X28387975Y-21524127D01*
X28397212Y-21788618D01*
X28397625Y-21800458D01*
X28398387Y-21804781D01*
X28398388Y-21804788D01*
X28414817Y-21897958D01*
X28446402Y-22077087D01*
X28533203Y-22344235D01*
X28656340Y-22596702D01*
X28658795Y-22600341D01*
X28658798Y-22600347D01*
X28661576Y-22604465D01*
X28813415Y-22829576D01*
X28816364Y-22832851D01*
X28816367Y-22832855D01*
X28990900Y-23026694D01*
X29021617Y-23090701D01*
X29012853Y-23161155D01*
X28977091Y-23206028D01*
X28978190Y-23207272D01*
X28969813Y-23214670D01*
X28969789Y-23214643D01*
X28966797Y-23217296D01*
X28963564Y-23219999D01*
X28957445Y-23224011D01*
X28952413Y-23229323D01*
X28904169Y-23280250D01*
X28901791Y-23282692D01*
X28833946Y-23350537D01*
X28771634Y-23384563D01*
X28744851Y-23387442D01*
X28322313Y-23387442D01*
X28254192Y-23367440D01*
X28233218Y-23350537D01*
X26922319Y-22039638D01*
X26909933Y-22025226D01*
X26901400Y-22013631D01*
X26901395Y-22013626D01*
X26897057Y-22007731D01*
X26891479Y-22002992D01*
X26891476Y-22002989D01*
X26856781Y-21973514D01*
X26849265Y-21966584D01*
X26843570Y-21960889D01*
X26837429Y-21956031D01*
X26821298Y-21943268D01*
X26817894Y-21940477D01*
X26767846Y-21897958D01*
X26767844Y-21897957D01*
X26762264Y-21893216D01*
X26755748Y-21889888D01*
X26750699Y-21886521D01*
X26745570Y-21883354D01*
X26739833Y-21878815D01*
X26673674Y-21847894D01*
X26669774Y-21845988D01*
X26604741Y-21812780D01*
X26597633Y-21811041D01*
X26591990Y-21808942D01*
X26586227Y-21807025D01*
X26579599Y-21803927D01*
X26508132Y-21789062D01*
X26503848Y-21788092D01*
X26432939Y-21770741D01*
X26427337Y-21770393D01*
X26427334Y-21770393D01*
X26421785Y-21770049D01*
X26421787Y-21770013D01*
X26417794Y-21769774D01*
X26413602Y-21769400D01*
X26406434Y-21767909D01*
X26340224Y-21769700D01*
X26329028Y-21770003D01*
X26325621Y-21770049D01*
X24212260Y-21770049D01*
X24144139Y-21750047D01*
X24097646Y-21696391D01*
X24095348Y-21690855D01*
X24095018Y-21690252D01*
X24091866Y-21681844D01*
X24004512Y-21565288D01*
X23887956Y-21477934D01*
X23751567Y-21426804D01*
X23689385Y-21420049D01*
X23621367Y-21420049D01*
X23553246Y-21400047D01*
X23506753Y-21346391D01*
X23496649Y-21276117D01*
X23526143Y-21211537D01*
X23577137Y-21176067D01*
X23663297Y-21143767D01*
X23671705Y-21140615D01*
X23788261Y-21053261D01*
X23875615Y-20936705D01*
X23878049Y-20930213D01*
X23927579Y-20880795D01*
X23996970Y-20865781D01*
X24068831Y-20894928D01*
X24116524Y-20934947D01*
X24216550Y-21018879D01*
X24454764Y-21167731D01*
X24711375Y-21281982D01*
X24981390Y-21359407D01*
X24985740Y-21360018D01*
X24985743Y-21360019D01*
X25088690Y-21374487D01*
X25259552Y-21398500D01*
X25470146Y-21398500D01*
X25472332Y-21398347D01*
X25472336Y-21398347D01*
X25675827Y-21384118D01*
X25675832Y-21384117D01*
X25680212Y-21383811D01*
X25954970Y-21325409D01*
X25959099Y-21323906D01*
X25959103Y-21323905D01*
X26214781Y-21230846D01*
X26214785Y-21230844D01*
X26218926Y-21229337D01*
X26466942Y-21097464D01*
X26571896Y-21021211D01*
X26690629Y-20934947D01*
X26690632Y-20934944D01*
X26694192Y-20932358D01*
X26741214Y-20886950D01*
X26791569Y-20838322D01*
X26896252Y-20737231D01*
X27069188Y-20515882D01*
X27071384Y-20512078D01*
X27071389Y-20512071D01*
X27207435Y-20276431D01*
X27209636Y-20272619D01*
X27314862Y-20012176D01*
X27375215Y-19770114D01*
X27381753Y-19743893D01*
X27381754Y-19743888D01*
X27382817Y-19739624D01*
X27397797Y-19597102D01*
X27411719Y-19464636D01*
X27411719Y-19464633D01*
X27412178Y-19460267D01*
X27411158Y-19431058D01*
X27402529Y-19183939D01*
X27402528Y-19183933D01*
X27402375Y-19179542D01*
X27397145Y-19149878D01*
X27360419Y-18941596D01*
X27353598Y-18902913D01*
X27266797Y-18635765D01*
X27245971Y-18593064D01*
X27190708Y-18479760D01*
X27143660Y-18383298D01*
X27141205Y-18379659D01*
X27141202Y-18379653D01*
X27019256Y-18198861D01*
X26986585Y-18150424D01*
X26798629Y-17941678D01*
X26583450Y-17761121D01*
X26345236Y-17612269D01*
X26088625Y-17498018D01*
X25818610Y-17420593D01*
X25814260Y-17419982D01*
X25814257Y-17419981D01*
X25711310Y-17405513D01*
X25540448Y-17381500D01*
X25329854Y-17381500D01*
X25327668Y-17381653D01*
X25327664Y-17381653D01*
X25124173Y-17395882D01*
X25124168Y-17395883D01*
X25119788Y-17396189D01*
X24845030Y-17454591D01*
X24840901Y-17456094D01*
X24840897Y-17456095D01*
X24585219Y-17549154D01*
X24585215Y-17549156D01*
X24581074Y-17550663D01*
X24333058Y-17682536D01*
X24329499Y-17685122D01*
X24329497Y-17685123D01*
X24203770Y-17776469D01*
X24105808Y-17847642D01*
X24074597Y-17877782D01*
X24011703Y-17910714D01*
X23940987Y-17904415D01*
X23884901Y-17860884D01*
X23878271Y-17850379D01*
X23875615Y-17843295D01*
X23788261Y-17726739D01*
X23671705Y-17639385D01*
X23535316Y-17588255D01*
X23473134Y-17581500D01*
X20776866Y-17581500D01*
X20714684Y-17588255D01*
X20707288Y-17591027D01*
X20707282Y-17591029D01*
X20600124Y-17631201D01*
X20529317Y-17636384D01*
X20466948Y-17602463D01*
X20432819Y-17540207D01*
X20429895Y-17513219D01*
X20429895Y-17144000D01*
X20449897Y-17075879D01*
X20503553Y-17029386D01*
X20555895Y-17018000D01*
X28434891Y-17018000D01*
X28503012Y-17038002D01*
G37*
%TD.AperFunction*%
%TA.AperFunction,Conductor*%
G36*
X19618017Y-17564397D02*
G01*
X19664510Y-17618053D01*
X19675896Y-17670395D01*
X19675896Y-19038279D01*
X19680371Y-19053518D01*
X19681761Y-19054723D01*
X19689444Y-19056394D01*
X19966565Y-19056394D01*
X19973386Y-19056024D01*
X20024248Y-19050500D01*
X20039499Y-19046874D01*
X20146270Y-19006847D01*
X20217077Y-19001664D01*
X20279446Y-19035584D01*
X20313575Y-19097840D01*
X20316500Y-19124829D01*
X20316500Y-20738134D01*
X20323255Y-20800316D01*
X20326027Y-20807712D01*
X20326029Y-20807718D01*
X20355732Y-20886950D01*
X20360915Y-20957757D01*
X20326845Y-21020274D01*
X19963975Y-21383144D01*
X19901663Y-21417170D01*
X19874880Y-21420049D01*
X19393117Y-21420049D01*
X19330935Y-21426804D01*
X19194546Y-21477934D01*
X19077990Y-21565288D01*
X18990636Y-21681844D01*
X18939506Y-21818233D01*
X18932751Y-21880415D01*
X18932751Y-22712885D01*
X18912749Y-22781006D01*
X18859093Y-22827499D01*
X18839040Y-22834373D01*
X18834709Y-22834878D01*
X18827838Y-22837372D01*
X18827830Y-22837374D01*
X18766092Y-22859785D01*
X18761988Y-22861195D01*
X18692491Y-22883708D01*
X18686236Y-22887504D01*
X18680777Y-22890003D01*
X18675329Y-22892731D01*
X18668453Y-22895227D01*
X18607400Y-22935255D01*
X18603727Y-22937573D01*
X18541283Y-22975465D01*
X18532907Y-22982862D01*
X18532883Y-22982835D01*
X18529889Y-22985490D01*
X18526658Y-22988192D01*
X18520538Y-22992204D01*
X18487865Y-23026694D01*
X18467262Y-23048443D01*
X18464884Y-23050885D01*
X18328071Y-23187698D01*
X18265759Y-23221724D01*
X18209392Y-23217647D01*
X18208655Y-23220745D01*
X18200967Y-23218917D01*
X18193573Y-23216145D01*
X18185725Y-23215292D01*
X18185723Y-23215292D01*
X18134788Y-23209759D01*
X18131391Y-23209390D01*
X16634000Y-23209390D01*
X16565879Y-23189388D01*
X16519386Y-23135732D01*
X16508000Y-23083390D01*
X16508000Y-18914385D01*
X16528002Y-18846264D01*
X16581658Y-18799771D01*
X16651932Y-18789667D01*
X16702348Y-18808533D01*
X16723186Y-18821988D01*
X16728752Y-18824231D01*
X16913806Y-18898810D01*
X16913809Y-18898811D01*
X16919375Y-18901054D01*
X17126975Y-18941596D01*
X17132537Y-18941868D01*
X17288484Y-18941868D01*
X17446204Y-18926820D01*
X17649172Y-18867276D01*
X17680428Y-18851178D01*
X17831887Y-18773172D01*
X17831890Y-18773170D01*
X17837218Y-18770426D01*
X18003558Y-18639764D01*
X18007490Y-18635233D01*
X18007493Y-18635230D01*
X18138259Y-18484535D01*
X18142190Y-18480005D01*
X18145190Y-18474819D01*
X18145193Y-18474815D01*
X18178833Y-18416665D01*
X18230258Y-18367716D01*
X18299983Y-18354341D01*
X18365871Y-18380785D01*
X18407003Y-18438653D01*
X18413897Y-18479760D01*
X18413897Y-18593064D01*
X18414267Y-18599885D01*
X18419791Y-18650747D01*
X18423417Y-18665999D01*
X18468572Y-18786449D01*
X18477110Y-18802044D01*
X18553611Y-18904119D01*
X18566172Y-18916680D01*
X18668247Y-18993181D01*
X18683842Y-19001719D01*
X18804290Y-19046873D01*
X18819545Y-19050500D01*
X18870410Y-19056026D01*
X18877224Y-19056395D01*
X19149781Y-19056395D01*
X19165020Y-19051920D01*
X19166225Y-19050530D01*
X19167896Y-19042847D01*
X19167896Y-17670395D01*
X19187898Y-17602274D01*
X19241554Y-17555781D01*
X19293896Y-17544395D01*
X19549896Y-17544395D01*
X19618017Y-17564397D01*
G37*
%TD.AperFunction*%
%TD*%
M02*
