%TF.GenerationSoftware,KiCad,Pcbnew,(6.0.2-0)*%
%TF.CreationDate,2022-10-03T22:05:57+11:00*%
%TF.ProjectId,ameoba,616d656f-6261-42e6-9b69-6361645f7063,rev?*%
%TF.SameCoordinates,Original*%
%TF.FileFunction,Legend,Bot*%
%TF.FilePolarity,Positive*%
%FSLAX46Y46*%
G04 Gerber Fmt 4.6, Leading zero omitted, Abs format (unit mm)*
G04 Created by KiCad (PCBNEW (6.0.2-0)) date 2022-10-03 22:05:57*
%MOMM*%
%LPD*%
G01*
G04 APERTURE LIST*
%ADD10C,0.125000*%
%ADD11C,0.100000*%
%ADD12C,0.120000*%
G04 APERTURE END LIST*
D10*
%TO.C,REF\u002A\u002A*%
X28412757Y-32884971D02*
X28341328Y-32908781D01*
X28222281Y-32908781D01*
X28174662Y-32884971D01*
X28150852Y-32861162D01*
X28127043Y-32813543D01*
X28127043Y-32765924D01*
X28150852Y-32718305D01*
X28174662Y-32694495D01*
X28222281Y-32670686D01*
X28317519Y-32646876D01*
X28365138Y-32623067D01*
X28388947Y-32599257D01*
X28412757Y-32551638D01*
X28412757Y-32504019D01*
X28388947Y-32456400D01*
X28365138Y-32432591D01*
X28317519Y-32408781D01*
X28198471Y-32408781D01*
X28127043Y-32432591D01*
X27912757Y-32908781D02*
X27912757Y-32408781D01*
X27627043Y-32908781D02*
X27841328Y-32623067D01*
X27627043Y-32408781D02*
X27912757Y-32694495D01*
X27198471Y-32408781D02*
X27293709Y-32408781D01*
X27341328Y-32432591D01*
X27365138Y-32456400D01*
X27412757Y-32527829D01*
X27436567Y-32623067D01*
X27436567Y-32813543D01*
X27412757Y-32861162D01*
X27388947Y-32884971D01*
X27341328Y-32908781D01*
X27246090Y-32908781D01*
X27198471Y-32884971D01*
X27174662Y-32861162D01*
X27150852Y-32813543D01*
X27150852Y-32694495D01*
X27174662Y-32646876D01*
X27198471Y-32623067D01*
X27246090Y-32599257D01*
X27341328Y-32599257D01*
X27388947Y-32623067D01*
X27412757Y-32646876D01*
X27436567Y-32694495D01*
X26865138Y-32623067D02*
X26912757Y-32599257D01*
X26936567Y-32575448D01*
X26960376Y-32527829D01*
X26960376Y-32504019D01*
X26936567Y-32456400D01*
X26912757Y-32432591D01*
X26865138Y-32408781D01*
X26769900Y-32408781D01*
X26722281Y-32432591D01*
X26698471Y-32456400D01*
X26674662Y-32504019D01*
X26674662Y-32527829D01*
X26698471Y-32575448D01*
X26722281Y-32599257D01*
X26769900Y-32623067D01*
X26865138Y-32623067D01*
X26912757Y-32646876D01*
X26936567Y-32670686D01*
X26960376Y-32718305D01*
X26960376Y-32813543D01*
X26936567Y-32861162D01*
X26912757Y-32884971D01*
X26865138Y-32908781D01*
X26769900Y-32908781D01*
X26722281Y-32884971D01*
X26698471Y-32861162D01*
X26674662Y-32813543D01*
X26674662Y-32718305D01*
X26698471Y-32670686D01*
X26722281Y-32646876D01*
X26769900Y-32623067D01*
X26198471Y-32908781D02*
X26484186Y-32908781D01*
X26341328Y-32908781D02*
X26341328Y-32408781D01*
X26388947Y-32480210D01*
X26436567Y-32527829D01*
X26484186Y-32551638D01*
X26007995Y-32456400D02*
X25984186Y-32432591D01*
X25936567Y-32408781D01*
X25817519Y-32408781D01*
X25769900Y-32432591D01*
X25746090Y-32456400D01*
X25722281Y-32504019D01*
X25722281Y-32551638D01*
X25746090Y-32623067D01*
X26031805Y-32908781D01*
X25722281Y-32908781D01*
X25507995Y-32718305D02*
X25127043Y-32718305D01*
X24888947Y-32908781D02*
X24888947Y-32408781D01*
X24722281Y-32765924D01*
X24555614Y-32408781D01*
X24555614Y-32908781D01*
X24317519Y-32908781D02*
X24317519Y-32408781D01*
X24079424Y-32908781D02*
X24079424Y-32408781D01*
X23793709Y-32908781D01*
X23793709Y-32408781D01*
X23555614Y-32908781D02*
X23555614Y-32408781D01*
X23317519Y-32718305D02*
X22936567Y-32718305D01*
X22698471Y-32646876D02*
X22531805Y-32646876D01*
X22460376Y-32908781D02*
X22698471Y-32908781D01*
X22698471Y-32408781D01*
X22460376Y-32408781D01*
%TO.C,D3*%
X23577094Y-21327380D02*
X23577094Y-20827380D01*
X23458046Y-20827380D01*
X23386617Y-20851190D01*
X23338998Y-20898809D01*
X23315189Y-20946428D01*
X23291379Y-21041666D01*
X23291379Y-21113094D01*
X23315189Y-21208332D01*
X23338998Y-21255951D01*
X23386617Y-21303570D01*
X23458046Y-21327380D01*
X23577094Y-21327380D01*
X23196141Y-21374999D02*
X22815189Y-21374999D01*
X22719951Y-21303570D02*
X22648522Y-21327380D01*
X22529475Y-21327380D01*
X22481856Y-21303570D01*
X22458046Y-21279761D01*
X22434236Y-21232142D01*
X22434236Y-21184523D01*
X22458046Y-21136904D01*
X22481856Y-21113094D01*
X22529475Y-21089285D01*
X22624713Y-21065475D01*
X22672332Y-21041666D01*
X22696141Y-21017856D01*
X22719951Y-20970237D01*
X22719951Y-20922618D01*
X22696141Y-20874999D01*
X22672332Y-20851190D01*
X22624713Y-20827380D01*
X22505665Y-20827380D01*
X22434236Y-20851190D01*
X22124713Y-20827380D02*
X22029475Y-20827380D01*
X21981856Y-20851190D01*
X21934236Y-20898809D01*
X21910427Y-20994047D01*
X21910427Y-21160713D01*
X21934236Y-21255951D01*
X21981856Y-21303570D01*
X22029475Y-21327380D01*
X22124713Y-21327380D01*
X22172332Y-21303570D01*
X22219951Y-21255951D01*
X22243760Y-21160713D01*
X22243760Y-20994047D01*
X22219951Y-20898809D01*
X22172332Y-20851190D01*
X22124713Y-20827380D01*
X21696141Y-21327380D02*
X21696141Y-20827380D01*
X21577094Y-20827380D01*
X21505665Y-20851190D01*
X21458046Y-20898809D01*
X21434236Y-20946428D01*
X21410427Y-21041666D01*
X21410427Y-21113094D01*
X21434236Y-21208332D01*
X21458046Y-21255951D01*
X21505665Y-21303570D01*
X21577094Y-21327380D01*
X21696141Y-21327380D01*
X21196141Y-21136904D02*
X20815189Y-21136904D01*
X20315189Y-21327380D02*
X20600903Y-21327380D01*
X20458046Y-21327380D02*
X20458046Y-20827380D01*
X20505665Y-20898809D01*
X20553284Y-20946428D01*
X20600903Y-20970237D01*
X20124713Y-20874999D02*
X20100903Y-20851190D01*
X20053284Y-20827380D01*
X19934236Y-20827380D01*
X19886617Y-20851190D01*
X19862808Y-20874999D01*
X19838998Y-20922618D01*
X19838998Y-20970237D01*
X19862808Y-21041666D01*
X20148522Y-21327380D01*
X19838998Y-21327380D01*
X19672332Y-20827380D02*
X19362808Y-20827380D01*
X19529475Y-21017856D01*
X19458046Y-21017856D01*
X19410427Y-21041666D01*
X19386617Y-21065475D01*
X19362808Y-21113094D01*
X19362808Y-21232142D01*
X19386617Y-21279761D01*
X19410427Y-21303570D01*
X19458046Y-21327380D01*
X19600903Y-21327380D01*
X19648522Y-21303570D01*
X19672332Y-21279761D01*
D11*
%TO.C,REF\u002A\u002A*%
X22611377Y-28700000D02*
X23211377Y-28700000D01*
X23211377Y-28700000D02*
X23211377Y-28100000D01*
X23211377Y-28100000D02*
X22611377Y-28700000D01*
G36*
X23211377Y-28700000D02*
G01*
X22611377Y-28700000D01*
X23211377Y-28100000D01*
X23211377Y-28700000D01*
G37*
X23211377Y-28700000D02*
X22611377Y-28700000D01*
X23211377Y-28100000D01*
X23211377Y-28700000D01*
D12*
%TO.C,D3*%
X23791251Y-23528549D02*
X19891251Y-23528549D01*
X23791251Y-21528549D02*
X19891251Y-21528549D01*
X23791251Y-21528549D02*
X23791251Y-23528549D01*
%TD*%
M02*
