%TF.GenerationSoftware,KiCad,Pcbnew,(6.0.2-0)*%
%TF.CreationDate,2022-10-03T22:05:57+11:00*%
%TF.ProjectId,ameoba,616d656f-6261-42e6-9b69-6361645f7063,rev?*%
%TF.SameCoordinates,Original*%
%TF.FileFunction,Copper,L1,Top*%
%TF.FilePolarity,Positive*%
%FSLAX46Y46*%
G04 Gerber Fmt 4.6, Leading zero omitted, Abs format (unit mm)*
G04 Created by KiCad (PCBNEW (6.0.2-0)) date 2022-10-03 22:05:57*
%MOMM*%
%LPD*%
G01*
G04 APERTURE LIST*
%TA.AperFunction,ComponentPad*%
%ADD10R,1.000000X1.500000*%
%TD*%
%TA.AperFunction,ComponentPad*%
%ADD11R,2.500000X1.000000*%
%TD*%
%TA.AperFunction,ComponentPad*%
%ADD12R,1.000000X2.500000*%
%TD*%
%TA.AperFunction,ComponentPad*%
%ADD13R,1.500000X1.000000*%
%TD*%
%TA.AperFunction,ViaPad*%
%ADD14C,0.800000*%
%TD*%
%TA.AperFunction,Conductor*%
%ADD15C,0.500000*%
%TD*%
G04 APERTURE END LIST*
D10*
%TO.P,,1,Pin_1*%
%TO.N,GND*%
X19421896Y-33125322D03*
%TD*%
D11*
%TO.P,,1,Pin_1*%
%TO.N,VCC*%
X33090198Y-30023078D03*
%TD*%
%TO.P,,1,Pin_1*%
%TO.N,DOUT*%
X33120913Y-28579460D03*
%TD*%
D10*
%TO.P,,1,Pin_1*%
%TO.N,GND*%
X19421896Y-17798395D03*
%TD*%
D11*
%TO.P,,1,Pin_1*%
%TO.N,VCC*%
X17763271Y-30023078D03*
%TD*%
D12*
%TO.P,J7,1,Pin_1*%
%TO.N,column_1*%
X29754717Y-32634037D03*
%TD*%
D13*
%TO.P,,1,Pin_1*%
%TO.N,row_2*%
X17333257Y-24217890D03*
%TD*%
D11*
%TO.P,,1,Pin_1*%
%TO.N,DIN*%
X17793986Y-28579460D03*
%TD*%
%TO.P,J5,1,Pin_1*%
%TO.N,row_2*%
X33020000Y-24130000D03*
%TD*%
D10*
%TO.P,J3,1,Pin_1*%
%TO.N,column_1*%
X29569391Y-17854473D03*
%TD*%
D14*
%TO.N,GND*%
X26670000Y-21590000D03*
X28759342Y-23296431D03*
X21590000Y-26670000D03*
X17947563Y-21177076D03*
X32967336Y-26582966D03*
%TD*%
D15*
%TO.N,column_1*%
X27909831Y-20764033D02*
X27909831Y-26639831D01*
X29569391Y-17854473D02*
X29569391Y-19104473D01*
X29569391Y-19104473D02*
X27909831Y-20764033D01*
X29754717Y-28484717D02*
X29754717Y-32634037D01*
X27909831Y-26639831D02*
X29754717Y-28484717D01*
%TD*%
%TA.AperFunction,Conductor*%
%TO.N,GND*%
G36*
X28503012Y-17038002D02*
G01*
X28549505Y-17091658D01*
X28560891Y-17144000D01*
X28560891Y-18652607D01*
X28567646Y-18714789D01*
X28587115Y-18766722D01*
X28607736Y-18821728D01*
X28618776Y-18851178D01*
X28621304Y-18854551D01*
X28635962Y-18921564D01*
X28611228Y-18988113D01*
X28599368Y-19001815D01*
X27545074Y-20056109D01*
X27482762Y-20090135D01*
X27411947Y-20085070D01*
X27355111Y-20042523D01*
X27330300Y-19976003D01*
X27333722Y-19936532D01*
X27381753Y-19743893D01*
X27381754Y-19743888D01*
X27382817Y-19739624D01*
X27387318Y-19696806D01*
X27411719Y-19464636D01*
X27411719Y-19464633D01*
X27412178Y-19460267D01*
X27411388Y-19437639D01*
X27402529Y-19183939D01*
X27402528Y-19183933D01*
X27402375Y-19179542D01*
X27401109Y-19172358D01*
X27360419Y-18941596D01*
X27353598Y-18902913D01*
X27266797Y-18635765D01*
X27245971Y-18593064D01*
X27190708Y-18479760D01*
X27143660Y-18383298D01*
X27141205Y-18379659D01*
X27141202Y-18379653D01*
X27019256Y-18198861D01*
X26986585Y-18150424D01*
X26798629Y-17941678D01*
X26583450Y-17761121D01*
X26345236Y-17612269D01*
X26088625Y-17498018D01*
X25818610Y-17420593D01*
X25814260Y-17419982D01*
X25814257Y-17419981D01*
X25711310Y-17405513D01*
X25540448Y-17381500D01*
X25329854Y-17381500D01*
X25327668Y-17381653D01*
X25327664Y-17381653D01*
X25124173Y-17395882D01*
X25124168Y-17395883D01*
X25119788Y-17396189D01*
X24845030Y-17454591D01*
X24840901Y-17456094D01*
X24840897Y-17456095D01*
X24585219Y-17549154D01*
X24585215Y-17549156D01*
X24581074Y-17550663D01*
X24333058Y-17682536D01*
X24329499Y-17685122D01*
X24329497Y-17685123D01*
X24203770Y-17776469D01*
X24105808Y-17847642D01*
X23903748Y-18042769D01*
X23730812Y-18264118D01*
X23728616Y-18267922D01*
X23728611Y-18267929D01*
X23642739Y-18416665D01*
X23590364Y-18507381D01*
X23485138Y-18767824D01*
X23484073Y-18772097D01*
X23484072Y-18772099D01*
X23430214Y-18988113D01*
X23417183Y-19040376D01*
X23416724Y-19044744D01*
X23416723Y-19044749D01*
X23399952Y-19204318D01*
X23387822Y-19319733D01*
X23387975Y-19324121D01*
X23387975Y-19324127D01*
X23396265Y-19561498D01*
X23397625Y-19600458D01*
X23398387Y-19604781D01*
X23398388Y-19604788D01*
X23422164Y-19739624D01*
X23446402Y-19877087D01*
X23533203Y-20144235D01*
X23656340Y-20396702D01*
X23658795Y-20400341D01*
X23658798Y-20400347D01*
X23724559Y-20497841D01*
X23813415Y-20629576D01*
X23816360Y-20632847D01*
X23816361Y-20632848D01*
X23867322Y-20689446D01*
X24001371Y-20838322D01*
X24216550Y-21018879D01*
X24454764Y-21167731D01*
X24711375Y-21281982D01*
X24981390Y-21359407D01*
X24985740Y-21360018D01*
X24985743Y-21360019D01*
X25088690Y-21374487D01*
X25259552Y-21398500D01*
X25470146Y-21398500D01*
X25472332Y-21398347D01*
X25472336Y-21398347D01*
X25675827Y-21384118D01*
X25675832Y-21384117D01*
X25680212Y-21383811D01*
X25954970Y-21325409D01*
X25959099Y-21323906D01*
X25959103Y-21323905D01*
X26214781Y-21230846D01*
X26214785Y-21230844D01*
X26218926Y-21229337D01*
X26466942Y-21097464D01*
X26571896Y-21021211D01*
X26690629Y-20934947D01*
X26690632Y-20934944D01*
X26694192Y-20932358D01*
X26896252Y-20737231D01*
X26908060Y-20722117D01*
X26926035Y-20699111D01*
X26983736Y-20657746D01*
X27054641Y-20654143D01*
X27116238Y-20689446D01*
X27148971Y-20752447D01*
X27151283Y-20773490D01*
X27151290Y-20773766D01*
X27151331Y-20776961D01*
X27151331Y-23638551D01*
X27131329Y-23706672D01*
X27077673Y-23753165D01*
X27007399Y-23763269D01*
X26942819Y-23733775D01*
X26933180Y-23724482D01*
X26928007Y-23718935D01*
X26928003Y-23718932D01*
X26925154Y-23715876D01*
X26696955Y-23528432D01*
X26445971Y-23372815D01*
X26438631Y-23369516D01*
X26369292Y-23338354D01*
X26176610Y-23251759D01*
X25966561Y-23189141D01*
X25897604Y-23168584D01*
X25897602Y-23168584D01*
X25893605Y-23167392D01*
X25889485Y-23166739D01*
X25889483Y-23166739D01*
X25605408Y-23121745D01*
X25605402Y-23121744D01*
X25601927Y-23121194D01*
X25577368Y-23120079D01*
X25510983Y-23117064D01*
X25510962Y-23117064D01*
X25509563Y-23117000D01*
X25325099Y-23117000D01*
X25105336Y-23131597D01*
X25101237Y-23132423D01*
X25101233Y-23132424D01*
X24958639Y-23161176D01*
X24815849Y-23189967D01*
X24536625Y-23286112D01*
X24532897Y-23287979D01*
X24363483Y-23372815D01*
X24272569Y-23418341D01*
X24028322Y-23584332D01*
X24025208Y-23587116D01*
X24025207Y-23587117D01*
X24002327Y-23607574D01*
X23808173Y-23781168D01*
X23805456Y-23784338D01*
X23805455Y-23784339D01*
X23623136Y-23997054D01*
X23615991Y-24005390D01*
X23613717Y-24008892D01*
X23613713Y-24008897D01*
X23477260Y-24219016D01*
X23455151Y-24253061D01*
X23453357Y-24256839D01*
X23453356Y-24256841D01*
X23443908Y-24276738D01*
X23328481Y-24519828D01*
X23327202Y-24523811D01*
X23327201Y-24523814D01*
X23249436Y-24766024D01*
X23238205Y-24801004D01*
X23233311Y-24828206D01*
X23192986Y-25052325D01*
X23185910Y-25091650D01*
X23185721Y-25095817D01*
X23185720Y-25095824D01*
X23177163Y-25284269D01*
X23172514Y-25386659D01*
X23172877Y-25390807D01*
X23172877Y-25390811D01*
X23174517Y-25409553D01*
X23198252Y-25680849D01*
X23199162Y-25684921D01*
X23199163Y-25684926D01*
X23257659Y-25946622D01*
X23262672Y-25969050D01*
X23364644Y-26246199D01*
X23366591Y-26249892D01*
X23366592Y-26249894D01*
X23402549Y-26318092D01*
X23502374Y-26507427D01*
X23504794Y-26510832D01*
X23671019Y-26744735D01*
X23671024Y-26744741D01*
X23673443Y-26748145D01*
X23676287Y-26751195D01*
X23676292Y-26751201D01*
X23813960Y-26898832D01*
X23874846Y-26964124D01*
X24103045Y-27151568D01*
X24354029Y-27307185D01*
X24623390Y-27428241D01*
X24796191Y-27479755D01*
X24855052Y-27497302D01*
X24906395Y-27512608D01*
X24910515Y-27513261D01*
X24910517Y-27513261D01*
X25194592Y-27558255D01*
X25194598Y-27558256D01*
X25198073Y-27558806D01*
X25222632Y-27559921D01*
X25289017Y-27562936D01*
X25289038Y-27562936D01*
X25290437Y-27563000D01*
X25474901Y-27563000D01*
X25694664Y-27548403D01*
X25698763Y-27547577D01*
X25698767Y-27547576D01*
X25872190Y-27512608D01*
X25984151Y-27490033D01*
X26263375Y-27393888D01*
X26433089Y-27308902D01*
X26523695Y-27263530D01*
X26523697Y-27263529D01*
X26527431Y-27261659D01*
X26771678Y-27095668D01*
X26991827Y-26898832D01*
X26994545Y-26895661D01*
X26997473Y-26892671D01*
X26998304Y-26893484D01*
X27053552Y-26857565D01*
X27124548Y-26857190D01*
X27184476Y-26895258D01*
X27209555Y-26939441D01*
X27213224Y-26950768D01*
X27213226Y-26950773D01*
X27215480Y-26957730D01*
X27219275Y-26963984D01*
X27221782Y-26969459D01*
X27224501Y-26974889D01*
X27226998Y-26981768D01*
X27231011Y-26987888D01*
X27231011Y-26987889D01*
X27267017Y-27042807D01*
X27269354Y-27046511D01*
X27307236Y-27108938D01*
X27310952Y-27113146D01*
X27310953Y-27113147D01*
X27314634Y-27117315D01*
X27314607Y-27117339D01*
X27317260Y-27120331D01*
X27319963Y-27123564D01*
X27323975Y-27129683D01*
X27329287Y-27134715D01*
X27380214Y-27182959D01*
X27382656Y-27185337D01*
X28959312Y-28761993D01*
X28993338Y-28824305D01*
X28996217Y-28851088D01*
X28996217Y-30879235D01*
X28976215Y-30947356D01*
X28945782Y-30980061D01*
X28891456Y-31020776D01*
X28804102Y-31137332D01*
X28752972Y-31273721D01*
X28746217Y-31335903D01*
X28746217Y-33876000D01*
X28726215Y-33944121D01*
X28672559Y-33990614D01*
X28620217Y-34002000D01*
X20555896Y-34002000D01*
X20487775Y-33981998D01*
X20441282Y-33928342D01*
X20429896Y-33876000D01*
X20429896Y-33397437D01*
X20425421Y-33382198D01*
X20424031Y-33380993D01*
X20416348Y-33379322D01*
X19293896Y-33379322D01*
X19225775Y-33359320D01*
X19179282Y-33305664D01*
X19167896Y-33253322D01*
X19167896Y-32853207D01*
X19675896Y-32853207D01*
X19680371Y-32868446D01*
X19681761Y-32869651D01*
X19689444Y-32871322D01*
X20411780Y-32871322D01*
X20427019Y-32866847D01*
X20428224Y-32865457D01*
X20429895Y-32857774D01*
X20429895Y-32330653D01*
X20429525Y-32323832D01*
X20424001Y-32272970D01*
X20420375Y-32257718D01*
X20375220Y-32137268D01*
X20366682Y-32121673D01*
X20290181Y-32019598D01*
X20277620Y-32007037D01*
X20175545Y-31930536D01*
X20159950Y-31921998D01*
X20039502Y-31876844D01*
X20024247Y-31873217D01*
X19973382Y-31867691D01*
X19966568Y-31867322D01*
X19694011Y-31867322D01*
X19678772Y-31871797D01*
X19677567Y-31873187D01*
X19675896Y-31880870D01*
X19675896Y-32853207D01*
X19167896Y-32853207D01*
X19167896Y-31885438D01*
X19163421Y-31870199D01*
X19162031Y-31868994D01*
X19154348Y-31867323D01*
X18877227Y-31867323D01*
X18870406Y-31867693D01*
X18819544Y-31873217D01*
X18804292Y-31876843D01*
X18683842Y-31921998D01*
X18668247Y-31930536D01*
X18566172Y-32007037D01*
X18553611Y-32019598D01*
X18477110Y-32121673D01*
X18468572Y-32137268D01*
X18423418Y-32257716D01*
X18419791Y-32272971D01*
X18414265Y-32323836D01*
X18413896Y-32330650D01*
X18413896Y-32527065D01*
X18393894Y-32595186D01*
X18340238Y-32641679D01*
X18269964Y-32651783D01*
X18205384Y-32622289D01*
X18185126Y-32599965D01*
X18069167Y-32436493D01*
X18069166Y-32436492D01*
X18065701Y-32431607D01*
X17912905Y-32285337D01*
X17735207Y-32170598D01*
X17652504Y-32137268D01*
X17544587Y-32093776D01*
X17544584Y-32093775D01*
X17539018Y-32091532D01*
X17331418Y-32050990D01*
X17325856Y-32050718D01*
X17169909Y-32050718D01*
X17012189Y-32065766D01*
X16809221Y-32125310D01*
X16803894Y-32128054D01*
X16803893Y-32128054D01*
X16691692Y-32185841D01*
X16621973Y-32199250D01*
X16556072Y-32172837D01*
X16514913Y-32114988D01*
X16508000Y-32073825D01*
X16508000Y-31157578D01*
X16528002Y-31089457D01*
X16581658Y-31042964D01*
X16634000Y-31031578D01*
X19061405Y-31031578D01*
X19123587Y-31024823D01*
X19259976Y-30973693D01*
X19376532Y-30886339D01*
X19463886Y-30769783D01*
X19515016Y-30633394D01*
X19521771Y-30571212D01*
X19521771Y-29474944D01*
X19521402Y-29471547D01*
X19515869Y-29420612D01*
X19515869Y-29420610D01*
X19515016Y-29412762D01*
X19505157Y-29386462D01*
X19499976Y-29315655D01*
X19505158Y-29298006D01*
X19542957Y-29197178D01*
X19542959Y-29197170D01*
X19545731Y-29189776D01*
X19552486Y-29127594D01*
X19552486Y-28603119D01*
X23054108Y-28603119D01*
X23057611Y-28639835D01*
X23058326Y-28647333D01*
X23058894Y-28658748D01*
X23071386Y-31533101D01*
X23071454Y-31548672D01*
X23071294Y-31555590D01*
X23068458Y-31611591D01*
X23069758Y-31624063D01*
X23071001Y-31628767D01*
X23071003Y-31628778D01*
X23079127Y-31659523D01*
X23080349Y-31664566D01*
X23080563Y-31665536D01*
X23082169Y-31674271D01*
X23087564Y-31710806D01*
X23091316Y-31718965D01*
X23093872Y-31727565D01*
X23093178Y-31727771D01*
X23096158Y-31736395D01*
X23101485Y-31760602D01*
X23104056Y-31766395D01*
X23104058Y-31766401D01*
X23134732Y-31835514D01*
X23158278Y-31888567D01*
X23239486Y-32002610D01*
X23341835Y-32098135D01*
X23461201Y-32171293D01*
X23592774Y-32219137D01*
X23673978Y-32231217D01*
X23682138Y-32232708D01*
X23718656Y-32240638D01*
X23723518Y-32240927D01*
X23723869Y-32240948D01*
X23731174Y-32241382D01*
X23774102Y-32237287D01*
X23786022Y-32236718D01*
X27062724Y-32235690D01*
X27069135Y-32235851D01*
X27126470Y-32238754D01*
X27131304Y-32238250D01*
X27131308Y-32238250D01*
X27134098Y-32237959D01*
X27134099Y-32237959D01*
X27138942Y-32237454D01*
X27143646Y-32236211D01*
X27143657Y-32236209D01*
X27173755Y-32228256D01*
X27188039Y-32225354D01*
X27214810Y-32221511D01*
X27214816Y-32221509D01*
X27223700Y-32220234D01*
X27231871Y-32216516D01*
X27240482Y-32213995D01*
X27240616Y-32214453D01*
X27249930Y-32211350D01*
X27275481Y-32205727D01*
X27281274Y-32203156D01*
X27281280Y-32203154D01*
X27360532Y-32167980D01*
X27403446Y-32148934D01*
X27411721Y-32143042D01*
X27458403Y-32109800D01*
X27517489Y-32067726D01*
X27613014Y-31965377D01*
X27686172Y-31846011D01*
X27734016Y-31714438D01*
X27746096Y-31633234D01*
X27747587Y-31625074D01*
X27755517Y-31588556D01*
X27756261Y-31576038D01*
X27752165Y-31533101D01*
X27751596Y-31521180D01*
X27750864Y-29474944D01*
X27750566Y-28643050D01*
X27750727Y-28636634D01*
X27753386Y-28584161D01*
X27753632Y-28579307D01*
X27752332Y-28566835D01*
X27743124Y-28531980D01*
X27740224Y-28517705D01*
X27736379Y-28490924D01*
X27736378Y-28490922D01*
X27735103Y-28482039D01*
X27731385Y-28473870D01*
X27728862Y-28465253D01*
X27729327Y-28465117D01*
X27726225Y-28455816D01*
X27721972Y-28436487D01*
X27721971Y-28436484D01*
X27720608Y-28430290D01*
X27663815Y-28302320D01*
X27582606Y-28188272D01*
X27567080Y-28173781D01*
X27484886Y-28097067D01*
X27484885Y-28097067D01*
X27480253Y-28092743D01*
X27360882Y-28019583D01*
X27229304Y-27971740D01*
X27164666Y-27962126D01*
X27148125Y-27959666D01*
X27139931Y-27958169D01*
X27108172Y-27951274D01*
X27108165Y-27951273D01*
X27103416Y-27950242D01*
X27098563Y-27949954D01*
X27098559Y-27949953D01*
X27095762Y-27949787D01*
X27095761Y-27949787D01*
X27090898Y-27949498D01*
X27086046Y-27949961D01*
X27049116Y-27953485D01*
X27036744Y-27954054D01*
X26148065Y-27951209D01*
X23748379Y-27943527D01*
X23742444Y-27943367D01*
X23683899Y-27940403D01*
X23679065Y-27940907D01*
X23679061Y-27940907D01*
X23676271Y-27941198D01*
X23676270Y-27941198D01*
X23671427Y-27941703D01*
X23637687Y-27950619D01*
X23622968Y-27953582D01*
X23588402Y-27958419D01*
X23580219Y-27962108D01*
X23571596Y-27964599D01*
X23571501Y-27964271D01*
X23561614Y-27967548D01*
X23534888Y-27973430D01*
X23406923Y-28030223D01*
X23292880Y-28111431D01*
X23197355Y-28213780D01*
X23124197Y-28333146D01*
X23076353Y-28464719D01*
X23067732Y-28522678D01*
X23064276Y-28545909D01*
X23062782Y-28554083D01*
X23054852Y-28590601D01*
X23054108Y-28603119D01*
X19552486Y-28603119D01*
X19552486Y-28031326D01*
X19545731Y-27969144D01*
X19494601Y-27832755D01*
X19407247Y-27716199D01*
X19290691Y-27628845D01*
X19154302Y-27577715D01*
X19092120Y-27570960D01*
X16634000Y-27570960D01*
X16565879Y-27550958D01*
X16519386Y-27497302D01*
X16508000Y-27444960D01*
X16508000Y-25352390D01*
X16528002Y-25284269D01*
X16581658Y-25237776D01*
X16634000Y-25226390D01*
X18131391Y-25226390D01*
X18193573Y-25219635D01*
X18329962Y-25168505D01*
X18337149Y-25163119D01*
X18345017Y-25158811D01*
X18345753Y-25160155D01*
X18402988Y-25138773D01*
X18472370Y-25153827D01*
X18522599Y-25204003D01*
X18537904Y-25270382D01*
X18537901Y-25270441D01*
X18537200Y-25275732D01*
X18537400Y-25281063D01*
X18537400Y-25281066D01*
X18541364Y-25386659D01*
X18545854Y-25506268D01*
X18593228Y-25732050D01*
X18677967Y-25946622D01*
X18797647Y-26143849D01*
X18801144Y-26147879D01*
X18887768Y-26247704D01*
X18948847Y-26318092D01*
X18952978Y-26321479D01*
X19123115Y-26460984D01*
X19123121Y-26460988D01*
X19127243Y-26464368D01*
X19327735Y-26578494D01*
X19332751Y-26580315D01*
X19332756Y-26580317D01*
X19539575Y-26655389D01*
X19539579Y-26655390D01*
X19544590Y-26657209D01*
X19549839Y-26658158D01*
X19549842Y-26658159D01*
X19767523Y-26697522D01*
X19767530Y-26697523D01*
X19771607Y-26698260D01*
X19789344Y-26699096D01*
X19794292Y-26699330D01*
X19794299Y-26699330D01*
X19795780Y-26699400D01*
X19957925Y-26699400D01*
X20024881Y-26693719D01*
X20124562Y-26685261D01*
X20124566Y-26685260D01*
X20129873Y-26684810D01*
X20135028Y-26683472D01*
X20135034Y-26683471D01*
X20348003Y-26628195D01*
X20348007Y-26628194D01*
X20353172Y-26626853D01*
X20358038Y-26624661D01*
X20358041Y-26624660D01*
X20558649Y-26534293D01*
X20563515Y-26532101D01*
X20567935Y-26529125D01*
X20567939Y-26529123D01*
X20669148Y-26460984D01*
X20754885Y-26403262D01*
X20921812Y-26244022D01*
X21059521Y-26058934D01*
X21114305Y-25951183D01*
X21161658Y-25858046D01*
X21161658Y-25858045D01*
X21164077Y-25853288D01*
X21217621Y-25680849D01*
X21230905Y-25638070D01*
X21230906Y-25638064D01*
X21232489Y-25632967D01*
X21262800Y-25404268D01*
X21261983Y-25382489D01*
X21254346Y-25179063D01*
X21254146Y-25173732D01*
X21206772Y-24947950D01*
X21122033Y-24733378D01*
X21002353Y-24536151D01*
X20984639Y-24515737D01*
X20854653Y-24365941D01*
X20854651Y-24365939D01*
X20851153Y-24361908D01*
X20809018Y-24327360D01*
X20676885Y-24219016D01*
X20676879Y-24219012D01*
X20672757Y-24215632D01*
X20472265Y-24101506D01*
X20467249Y-24099685D01*
X20467244Y-24099683D01*
X20260425Y-24024611D01*
X20260421Y-24024610D01*
X20255410Y-24022791D01*
X20250161Y-24021842D01*
X20250158Y-24021841D01*
X20032477Y-23982478D01*
X20032470Y-23982477D01*
X20028393Y-23981740D01*
X20010656Y-23980904D01*
X20005708Y-23980670D01*
X20005701Y-23980670D01*
X20004220Y-23980600D01*
X19842075Y-23980600D01*
X19775119Y-23986281D01*
X19675438Y-23994739D01*
X19675434Y-23994740D01*
X19670127Y-23995190D01*
X19664972Y-23996528D01*
X19664966Y-23996529D01*
X19451997Y-24051805D01*
X19451993Y-24051806D01*
X19446828Y-24053147D01*
X19441962Y-24055339D01*
X19441959Y-24055340D01*
X19343521Y-24099683D01*
X19236485Y-24147899D01*
X19232065Y-24150875D01*
X19232061Y-24150877D01*
X19139800Y-24212992D01*
X19045115Y-24276738D01*
X18878188Y-24435978D01*
X18818844Y-24515739D01*
X18762136Y-24558451D01*
X18691336Y-24563724D01*
X18628924Y-24529882D01*
X18594716Y-24467670D01*
X18591757Y-24440525D01*
X18591757Y-23669756D01*
X18585002Y-23607574D01*
X18533872Y-23471185D01*
X18446518Y-23354629D01*
X18329962Y-23267275D01*
X18193573Y-23216145D01*
X18131391Y-23209390D01*
X16634000Y-23209390D01*
X16565879Y-23189388D01*
X16519386Y-23135732D01*
X16508000Y-23083390D01*
X16508000Y-18914385D01*
X16528002Y-18846264D01*
X16581658Y-18799771D01*
X16651932Y-18789667D01*
X16702348Y-18808533D01*
X16723186Y-18821988D01*
X16728752Y-18824231D01*
X16913806Y-18898810D01*
X16913809Y-18898811D01*
X16919375Y-18901054D01*
X17126975Y-18941596D01*
X17132537Y-18941868D01*
X17288484Y-18941868D01*
X17446204Y-18926820D01*
X17649172Y-18867276D01*
X17666476Y-18858364D01*
X17831887Y-18773172D01*
X17831890Y-18773170D01*
X17837218Y-18770426D01*
X18003558Y-18639764D01*
X18007490Y-18635233D01*
X18007493Y-18635230D01*
X18138259Y-18484535D01*
X18142190Y-18480005D01*
X18145190Y-18474819D01*
X18145193Y-18474815D01*
X18178833Y-18416665D01*
X18230258Y-18367716D01*
X18299983Y-18354341D01*
X18365871Y-18380785D01*
X18407003Y-18438653D01*
X18413897Y-18479760D01*
X18413897Y-18593064D01*
X18414267Y-18599885D01*
X18419791Y-18650747D01*
X18423417Y-18665999D01*
X18468572Y-18786449D01*
X18477110Y-18802044D01*
X18553611Y-18904119D01*
X18566172Y-18916680D01*
X18668247Y-18993181D01*
X18683842Y-19001719D01*
X18804290Y-19046873D01*
X18819545Y-19050500D01*
X18870410Y-19056026D01*
X18877224Y-19056395D01*
X19149781Y-19056395D01*
X19165020Y-19051920D01*
X19166225Y-19050530D01*
X19167896Y-19042847D01*
X19167896Y-19038279D01*
X19675896Y-19038279D01*
X19680371Y-19053518D01*
X19681761Y-19054723D01*
X19689444Y-19056394D01*
X19966565Y-19056394D01*
X19973386Y-19056024D01*
X20024248Y-19050500D01*
X20039500Y-19046874D01*
X20159950Y-19001719D01*
X20175545Y-18993181D01*
X20277620Y-18916680D01*
X20290181Y-18904119D01*
X20366682Y-18802044D01*
X20375220Y-18786449D01*
X20420374Y-18666001D01*
X20424001Y-18650746D01*
X20429527Y-18599881D01*
X20429896Y-18593067D01*
X20429896Y-18070510D01*
X20425421Y-18055271D01*
X20424031Y-18054066D01*
X20416348Y-18052395D01*
X19694011Y-18052395D01*
X19678772Y-18056870D01*
X19677567Y-18058260D01*
X19675896Y-18065943D01*
X19675896Y-19038279D01*
X19167896Y-19038279D01*
X19167896Y-17670395D01*
X19187898Y-17602274D01*
X19241554Y-17555781D01*
X19293896Y-17544395D01*
X20411780Y-17544395D01*
X20427019Y-17539920D01*
X20428224Y-17538530D01*
X20429895Y-17530847D01*
X20429895Y-17144000D01*
X20449897Y-17075879D01*
X20503553Y-17029386D01*
X20555895Y-17018000D01*
X28434891Y-17018000D01*
X28503012Y-17038002D01*
G37*
%TD.AperFunction*%
%TA.AperFunction,Conductor*%
G36*
X28876843Y-22901461D02*
G01*
X28887967Y-22912375D01*
X28998427Y-23035053D01*
X28998431Y-23035057D01*
X29001371Y-23038322D01*
X29216550Y-23218879D01*
X29454764Y-23367731D01*
X29568436Y-23418341D01*
X29687125Y-23471185D01*
X29711375Y-23481982D01*
X29981390Y-23559407D01*
X29985740Y-23560018D01*
X29985743Y-23560019D01*
X30042397Y-23567981D01*
X30259552Y-23598500D01*
X30470146Y-23598500D01*
X30472332Y-23598347D01*
X30472336Y-23598347D01*
X30675827Y-23584118D01*
X30675832Y-23584117D01*
X30680212Y-23583811D01*
X30954970Y-23525409D01*
X31092408Y-23475386D01*
X31163259Y-23470883D01*
X31225299Y-23505401D01*
X31258829Y-23567981D01*
X31261500Y-23593787D01*
X31261500Y-23873065D01*
X31241498Y-23941186D01*
X31187842Y-23987679D01*
X31113080Y-23997054D01*
X31067762Y-23988859D01*
X31032476Y-23982478D01*
X31032471Y-23982477D01*
X31028393Y-23981740D01*
X31010656Y-23980904D01*
X31005708Y-23980670D01*
X31005701Y-23980670D01*
X31004220Y-23980600D01*
X30842075Y-23980600D01*
X30775119Y-23986281D01*
X30675438Y-23994739D01*
X30675434Y-23994740D01*
X30670127Y-23995190D01*
X30664972Y-23996528D01*
X30664966Y-23996529D01*
X30451997Y-24051805D01*
X30451993Y-24051806D01*
X30446828Y-24053147D01*
X30441962Y-24055339D01*
X30441959Y-24055340D01*
X30343521Y-24099683D01*
X30236485Y-24147899D01*
X30232065Y-24150875D01*
X30232061Y-24150877D01*
X30139800Y-24212992D01*
X30045115Y-24276738D01*
X29878188Y-24435978D01*
X29875000Y-24440263D01*
X29783143Y-24563724D01*
X29740479Y-24621066D01*
X29738064Y-24625816D01*
X29683377Y-24733378D01*
X29635923Y-24826712D01*
X29601717Y-24936873D01*
X29569095Y-25041930D01*
X29569094Y-25041936D01*
X29567511Y-25047033D01*
X29556284Y-25131745D01*
X29539280Y-25260041D01*
X29537200Y-25275732D01*
X29537400Y-25281062D01*
X29537400Y-25281063D01*
X29541364Y-25386659D01*
X29545854Y-25506268D01*
X29593228Y-25732050D01*
X29677967Y-25946622D01*
X29797647Y-26143849D01*
X29801144Y-26147879D01*
X29887768Y-26247704D01*
X29948847Y-26318092D01*
X29952978Y-26321479D01*
X30123115Y-26460984D01*
X30123121Y-26460988D01*
X30127243Y-26464368D01*
X30327735Y-26578494D01*
X30332751Y-26580315D01*
X30332756Y-26580317D01*
X30539575Y-26655389D01*
X30539579Y-26655390D01*
X30544590Y-26657209D01*
X30549839Y-26658158D01*
X30549842Y-26658159D01*
X30767523Y-26697522D01*
X30767530Y-26697523D01*
X30771607Y-26698260D01*
X30789344Y-26699096D01*
X30794292Y-26699330D01*
X30794299Y-26699330D01*
X30795780Y-26699400D01*
X30957925Y-26699400D01*
X31024881Y-26693719D01*
X31124562Y-26685261D01*
X31124566Y-26685260D01*
X31129873Y-26684810D01*
X31135028Y-26683472D01*
X31135034Y-26683471D01*
X31348003Y-26628195D01*
X31348007Y-26628194D01*
X31353172Y-26626853D01*
X31358038Y-26624661D01*
X31358041Y-26624660D01*
X31558649Y-26534293D01*
X31563515Y-26532101D01*
X31567935Y-26529125D01*
X31567939Y-26529123D01*
X31669148Y-26460984D01*
X31754885Y-26403262D01*
X31921812Y-26244022D01*
X32059521Y-26058934D01*
X32114305Y-25951183D01*
X32161658Y-25858046D01*
X32161658Y-25858045D01*
X32164077Y-25853288D01*
X32217621Y-25680849D01*
X32230905Y-25638070D01*
X32230906Y-25638064D01*
X32232489Y-25632967D01*
X32262800Y-25404268D01*
X32262139Y-25386659D01*
X32257731Y-25269226D01*
X32275163Y-25200403D01*
X32327037Y-25151930D01*
X32383642Y-25138500D01*
X34318134Y-25138500D01*
X34352393Y-25134778D01*
X34422273Y-25147305D01*
X34474290Y-25195625D01*
X34492000Y-25260041D01*
X34492000Y-27444960D01*
X34471998Y-27513081D01*
X34418342Y-27559574D01*
X34366000Y-27570960D01*
X31822779Y-27570960D01*
X31760597Y-27577715D01*
X31624208Y-27628845D01*
X31507652Y-27716199D01*
X31420298Y-27832755D01*
X31369168Y-27969144D01*
X31362413Y-28031326D01*
X31362413Y-29127594D01*
X31362782Y-29130991D01*
X31368315Y-29181920D01*
X31369168Y-29189776D01*
X31371940Y-29197170D01*
X31379027Y-29216076D01*
X31384208Y-29286883D01*
X31379026Y-29304532D01*
X31341227Y-29405360D01*
X31341225Y-29405366D01*
X31338453Y-29412762D01*
X31331698Y-29474944D01*
X31331698Y-30571212D01*
X31338453Y-30633394D01*
X31389583Y-30769783D01*
X31476937Y-30886339D01*
X31593493Y-30973693D01*
X31729882Y-31024823D01*
X31792064Y-31031578D01*
X34366000Y-31031578D01*
X34434121Y-31051580D01*
X34480614Y-31105236D01*
X34492000Y-31157578D01*
X34492000Y-32236498D01*
X34471998Y-32304619D01*
X34418342Y-32351112D01*
X34348068Y-32361216D01*
X34278868Y-32327515D01*
X34259423Y-32308900D01*
X34255093Y-32304755D01*
X34077395Y-32190016D01*
X34017297Y-32165796D01*
X33886775Y-32113194D01*
X33886772Y-32113193D01*
X33881206Y-32110950D01*
X33673606Y-32070408D01*
X33668044Y-32070136D01*
X33512097Y-32070136D01*
X33354377Y-32085184D01*
X33151409Y-32144728D01*
X33146082Y-32147472D01*
X33146081Y-32147472D01*
X32968694Y-32238832D01*
X32968691Y-32238834D01*
X32963363Y-32241578D01*
X32797023Y-32372240D01*
X32793091Y-32376771D01*
X32793088Y-32376774D01*
X32674497Y-32513438D01*
X32658391Y-32531999D01*
X32655391Y-32537185D01*
X32655388Y-32537189D01*
X32606157Y-32622289D01*
X32552470Y-32715090D01*
X32483082Y-32914907D01*
X32452730Y-33124240D01*
X32462510Y-33335535D01*
X32512068Y-33541170D01*
X32599617Y-33733723D01*
X32603086Y-33738613D01*
X32603088Y-33738617D01*
X32648829Y-33803100D01*
X32671928Y-33870234D01*
X32655064Y-33939199D01*
X32603593Y-33988098D01*
X32546060Y-34002000D01*
X30889217Y-34002000D01*
X30821096Y-33981998D01*
X30774603Y-33928342D01*
X30763217Y-33876000D01*
X30763217Y-31335903D01*
X30756462Y-31273721D01*
X30705332Y-31137332D01*
X30617978Y-31020776D01*
X30563652Y-30980061D01*
X30521137Y-30923202D01*
X30513217Y-30879235D01*
X30513217Y-28551787D01*
X30514650Y-28532837D01*
X30516816Y-28518602D01*
X30516816Y-28518598D01*
X30517916Y-28511368D01*
X30515531Y-28482039D01*
X30513632Y-28458699D01*
X30513217Y-28448484D01*
X30513217Y-28440424D01*
X30509926Y-28412197D01*
X30509495Y-28407838D01*
X30504170Y-28342377D01*
X30503577Y-28335081D01*
X30501322Y-28328120D01*
X30500135Y-28322180D01*
X30498746Y-28316305D01*
X30497899Y-28309036D01*
X30472981Y-28240387D01*
X30471564Y-28236259D01*
X30451324Y-28173781D01*
X30451323Y-28173779D01*
X30449068Y-28166818D01*
X30445272Y-28160563D01*
X30442766Y-28155089D01*
X30440047Y-28149659D01*
X30437550Y-28142780D01*
X30433537Y-28136659D01*
X30397531Y-28081741D01*
X30395184Y-28078022D01*
X30357312Y-28015610D01*
X30349914Y-28007233D01*
X30349941Y-28007209D01*
X30347288Y-28004217D01*
X30344585Y-28000984D01*
X30340573Y-27994865D01*
X30284334Y-27941589D01*
X30281892Y-27939211D01*
X28705236Y-26362555D01*
X28671210Y-26300243D01*
X28668331Y-26273460D01*
X28668331Y-22996685D01*
X28688333Y-22928564D01*
X28741989Y-22882071D01*
X28812263Y-22871967D01*
X28876843Y-22901461D01*
G37*
%TD.AperFunction*%
%TD*%
M02*
